<svg width="40" height="40" viewBox="0 0 40 40" fill="none" xmlns="http://www.w3.org/2000/svg">
<g clip-path="url(#clip0_23_523)">
<path d="M34.0156 28.2344L27.0078 27.7656C26.6016 27.7422 26.2031 27.8516 25.875 28.0938C25.5469 28.3359 25.3125 28.6719 25.2188 29.0703L23.5 35.8828C22.375 36.1328 21.2031 36.2578 20 36.2578C18.7969 36.2578 17.6328 36.125 16.5 35.8828L14.7812 29.0703C14.6797 28.6797 14.4453 28.3359 14.125 28.0938C13.8047 27.8516 13.3984 27.7422 12.9922 27.7656L5.98438 28.2344C4.82031 26.2422 4.05469 23.9844 3.82812 21.5781L9.76562 17.8359C10.1094 17.6172 10.3594 17.2891 10.4844 16.9062C10.6094 16.5234 10.5938 16.1094 10.4453 15.7344L7.84375 9.21875C9.39844 7.46875 11.3281 6.05469 13.5 5.10156L18.8984 9.60156C19.2109 9.85938 19.6016 10 20 10C20.3984 10 20.7969 9.85938 21.1016 9.60156L26.5 5.10156C28.6719 6.05469 30.6016 7.46875 32.1562 9.21875L29.5469 15.7344C29.3984 16.1094 29.3828 16.5234 29.5078 16.9062C29.6328 17.2891 29.8906 17.6172 30.2266 17.8359L36.1719 21.5781C35.9375 23.9844 35.1797 26.2422 34.0156 28.2344ZM20 3.75H20.0703H19.9297H20ZM4.42969 15.3281C4.5 15.0938 4.57812 14.8516 4.65625 14.6172L4.42969 15.3281ZM10.3125 33.0469L10.6094 33.2578C10.5078 33.1875 10.4141 33.1172 10.3125 33.0469ZM29.6953 33.0391C29.5938 33.1172 29.4922 33.1953 29.3828 33.2656L29.6953 33.0391ZM35.5703 15.3281L35.3359 14.6094C35.4219 14.8438 35.5 15.0859 35.5703 15.3281ZM20 40C25.3043 40 30.3914 37.8929 34.1421 34.1421C37.8929 30.3914 40 25.3043 40 20C40 14.6957 37.8929 9.60859 34.1421 5.85786C30.3914 2.10714 25.3043 0 20 0C14.6957 0 9.60859 2.10714 5.85786 5.85786C2.10714 9.60859 0 14.6957 0 20C0 25.3043 2.10714 30.3914 5.85786 34.1421C9.60859 37.8929 14.6957 40 20 40ZM21.1016 14.5547C20.4453 14.0781 19.5547 14.0781 18.8984 14.5547L15.1562 17.2656C14.5 17.7422 14.2266 18.5859 14.4766 19.3594L15.9062 23.7578C16.1562 24.5312 16.875 25.0547 17.6875 25.0547H22.3125C23.125 25.0547 23.8438 24.5312 24.0938 23.7578L25.5234 19.3594C25.7734 18.5859 25.5 17.7422 24.8438 17.2656L21.1016 14.5469V14.5547Z" fill="#03045E"/>
</g>
<defs>
<clipPath id="clip0_23_523">
<rect width="40" height="40" fill="white"/>
</clipPath>
</defs>
</svg>
