<svg width="40" height="38" viewBox="0 0 40 38" fill="none" xmlns="http://www.w3.org/2000/svg">
<path d="M5.71429 0.5C2.5625 0.5 0 3.0625 0 6.21429V34.7857C0 37.9375 2.5625 40.5 5.71429 40.5H14.4821V27.4821H9.76786V20.5H14.4821V17.4911C14.4821 9.71429 18 6.10714 25.6429 6.10714C27.0893 6.10714 29.5893 6.39286 30.6161 6.67857V13C30.0804 12.9464 29.1429 12.9107 27.9732 12.9107C24.2232 12.9107 22.7768 14.3304 22.7768 18.0179V20.5H30.2411L28.9554 27.4821H22.7679V40.5H34.2857C37.4375 40.5 40 37.9375 40 34.7857V6.21429C40 3.0625 37.4375 0.5 34.2857 0.5H5.71429Z" fill="#03045E"/>
</svg>
