<svg width="90" height="90" viewBox="0 0 90 90" fill="none" xmlns="http://www.w3.org/2000/svg">
<g clip-path="url(#clip0_15_947)">
<path d="M45 90C69.8528 90 90 69.8528 90 45C90 20.1472 69.8528 0 45 0C20.1472 0 0 20.1472 0 45C0 69.8528 20.1472 90 45 90Z" fill="#F0F0F0"/>
<path d="M89.6191 39.1305H50.8699H50.8697V0.380918C48.9482 0.130781 46.9893 0 45 0C43.0107 0 41.0518 0.130781 39.1305 0.380918V39.1301V39.1303H0.380918C0.130781 41.0518 0 43.0103 0 45C0 46.9897 0.130781 48.9482 0.380918 50.8695H39.1301H39.1303V89.6191C41.0518 89.8692 43.0107 90 45 90C46.9893 90 48.9482 89.8694 50.8695 89.6191V50.8699V50.8697H89.6191C89.8692 48.9482 90 46.9897 90 45C90 43.0103 89.8692 41.0518 89.6191 39.1305Z" fill="#D80027"/>
</g>
<defs>
<clipPath id="clip0_15_947">
<rect width="90" height="90" fill="white"/>
</clipPath>
</defs>
</svg>
