<svg width="90" height="90" viewBox="0 0 90 90" fill="none" xmlns="http://www.w3.org/2000/svg">
<g clip-path="url(#clip0_15_961)">
<path d="M2.79895 60.6521C9.15713 77.7879 25.6516 90 45 90C64.3484 90 80.8428 77.7879 87.201 60.6521L45 56.7392L2.79895 60.6521Z" fill="#FFDA44"/>
<path d="M45 0C25.6516 0 9.15713 12.2119 2.79895 29.3479L45 33.2608L87.201 29.3477C80.8428 12.2119 64.3484 0 45 0Z" fill="black"/>
<path d="M2.79896 29.3479C0.990176 34.2228 0 39.4956 0 45C0 50.5044 0.990176 55.7771 2.79896 60.6521H87.2012C89.01 55.7771 90 50.5044 90 45C90 39.4956 89.01 34.2228 87.201 29.3479H2.79896Z" fill="#D80027"/>
</g>
<defs>
<clipPath id="clip0_15_961">
<rect width="90" height="90" fill="white"/>
</clipPath>
</defs>
</svg>
