<svg width="90" height="90" viewBox="0 0 90 90" fill="none" xmlns="http://www.w3.org/2000/svg">
<g clip-path="url(#clip0_16_282)">
<path d="M2.79896 29.3479C0.990176 34.223 0 39.4956 0 45C0 50.5044 0.990176 55.7773 2.79896 60.6521L45 64.5651L87.201 60.6521C89.0098 55.7773 90 50.5044 90 45C90 39.4956 89.0098 34.223 87.201 29.3479L45 25.4348L2.79896 29.3479Z" fill="#F0F0F0"/>
<path d="M45.0001 0C25.6518 0 9.1572 12.2119 2.79919 29.3479H87.2014C80.8429 12.2119 64.3486 0 45.0001 0Z" fill="#D80027"/>
<path d="M45.0001 90C64.3486 90 80.8429 77.7881 87.2013 60.6521H2.79919C9.1572 77.7881 25.6518 90 45.0001 90Z" fill="#6DA544"/>
</g>
<defs>
<clipPath id="clip0_16_282">
<rect width="90" height="90" fill="white"/>
</clipPath>
</defs>
</svg>
