<svg width="90" height="90" viewBox="0 0 90 90" fill="none" xmlns="http://www.w3.org/2000/svg">
<g clip-path="url(#clip0_16_277)">
<path d="M45 90C69.8528 90 90 69.8528 90 45C90 20.1472 69.8528 0 45 0C20.1472 0 0 20.1472 0 45C0 69.8528 20.1472 90 45 90Z" fill="#F0F0F0"/>
<path d="M90 45C90 25.6516 77.7881 9.15713 60.6521 2.79895V87.2012C77.7881 80.8428 90 64.3484 90 45Z" fill="#D80027"/>
<path d="M0 45C0 64.3484 12.2119 80.8428 29.3479 87.201V2.79895C12.2119 9.15713 0 25.6516 0 45Z" fill="#6DA544"/>
</g>
<defs>
<clipPath id="clip0_16_277">
<rect width="90" height="90" fill="white"/>
</clipPath>
</defs>
</svg>
