<svg width="90" height="90" viewBox="0 0 90 90" fill="none" xmlns="http://www.w3.org/2000/svg">
<g clip-path="url(#clip0_15_951)">
<path d="M45 90C69.8528 90 90 69.8528 90 45C90 20.1472 69.8528 0 45 0C20.1472 0 0 20.1472 0 45C0 69.8528 20.1472 90 45 90Z" fill="#F0F0F0"/>
<path d="M87.201 60.6521C89.01 55.7771 90 50.5044 90 45C90 39.4956 89.01 34.2228 87.201 29.3479H2.79896C0.990176 34.2228 0 39.4956 0 45C0 50.5044 0.990176 55.7771 2.79896 60.6521L45 64.5651L87.201 60.6521Z" fill="#0052B4"/>
<path d="M45 90C64.3484 90 80.8428 77.7881 87.201 60.6521H2.79895C9.15713 77.7881 25.6516 90 45 90Z" fill="#D80027"/>
</g>
<defs>
<clipPath id="clip0_15_951">
<rect width="90" height="90" fill="white"/>
</clipPath>
</defs>
</svg>
