<svg width="90" height="90" viewBox="0 0 90 90" fill="none" xmlns="http://www.w3.org/2000/svg">
<path d="M10.5362 19.4852C10.3696 14.6934 14.1025 10.275 19.1488 10.275H70.8566C75.9029 10.275 79.6358 14.6934 79.4692 19.4852C79.3089 24.0879 79.517 30.0504 81.0175 34.9118C82.5229 39.7886 85.0611 42.8704 89.2187 43.267V47.7579C85.0611 48.1544 82.5229 51.2362 81.0175 56.1131C79.517 60.9745 79.3089 66.937 79.4692 71.5397C79.6358 76.3315 75.9029 80.7492 70.8566 80.7492H19.1488C14.1025 80.7492 10.3696 76.3307 10.5362 71.5397C10.6965 66.937 10.4884 60.9745 8.98724 56.1131C7.48255 51.2369 4.93724 48.1544 0.779663 47.7579V43.267C4.93724 42.8711 7.48255 39.7886 8.98724 34.9118C10.4884 30.0504 10.6958 24.0879 10.5362 19.4852Z" fill="url(#paint0_linear_15_911)"/>
<g filter="url(#filter0_d_15_911)">
<path d="M47.1865 64.5019C55.3561 64.5019 60.2791 60.5018 60.2791 53.904C60.2791 48.9168 56.7665 45.3062 51.5507 44.7347V44.5269C55.3827 43.9035 58.3898 40.3449 58.3898 36.3708C58.3898 30.7082 53.9192 27.0195 47.1067 27.0195H31.7787V64.5019H47.1865ZM37.7396 31.7731H45.6698C49.9808 31.7731 52.4289 33.6952 52.4289 37.1759C52.4289 40.8904 49.5816 42.9684 44.419 42.9684H37.7396V31.7731ZM37.7396 59.7484V47.4101H45.6164C51.2579 47.4101 54.1852 49.488 54.1852 53.5403C54.1852 57.5923 51.3379 59.7484 45.9624 59.7484H37.7396Z" fill="url(#paint1_linear_15_911)"/>
<path d="M47.1865 64.5019C55.3561 64.5019 60.2791 60.5018 60.2791 53.904C60.2791 48.9168 56.7665 45.3062 51.5507 44.7347V44.5269C55.3827 43.9035 58.3898 40.3449 58.3898 36.3708C58.3898 30.7082 53.9192 27.0195 47.1067 27.0195H31.7787V64.5019H47.1865ZM37.7396 31.7731H45.6698C49.9808 31.7731 52.4289 33.6952 52.4289 37.1759C52.4289 40.8904 49.5816 42.9684 44.419 42.9684H37.7396V31.7731ZM37.7396 59.7484V47.4101H45.6164C51.2579 47.4101 54.1852 49.488 54.1852 53.5403C54.1852 57.5923 51.3379 59.7484 45.9624 59.7484H37.7396Z" stroke="white" stroke-width="0.24566"/>
</g>
<defs>
<filter id="filter0_d_15_911" x="27.7253" y="23.9488" width="36.6071" height="45.5891" filterUnits="userSpaceOnUse" color-interpolation-filters="sRGB">
<feFlood flood-opacity="0" result="BackgroundImageFix"/>
<feColorMatrix in="SourceAlpha" type="matrix" values="0 0 0 0 0 0 0 0 0 0 0 0 0 0 0 0 0 0 127 0" result="hardAlpha"/>
<feOffset dy="0.98264"/>
<feGaussianBlur stdDeviation="1.96528"/>
<feColorMatrix type="matrix" values="0 0 0 0 0 0 0 0 0 0 0 0 0 0 0 0 0 0 0.15 0"/>
<feBlend mode="normal" in2="BackgroundImageFix" result="effect1_dropShadow_15_911"/>
<feBlend mode="normal" in="SourceGraphic" in2="effect1_dropShadow_15_911" result="shape"/>
</filter>
<linearGradient id="paint0_linear_15_911" x1="13.9215" y1="12.1401" x2="91.2009" y2="73.4854" gradientUnits="userSpaceOnUse">
<stop stop-color="#9013FE"/>
<stop offset="1" stop-color="#6610F2"/>
</linearGradient>
<linearGradient id="paint1_linear_15_911" x1="34.4753" y1="29.4861" x2="51.7483" y2="58.6999" gradientUnits="userSpaceOnUse">
<stop stop-color="white"/>
<stop offset="1" stop-color="#F1E5FC"/>
</linearGradient>
</defs>
</svg>
