<svg width="90" height="90" viewBox="0 0 90 90" fill="none" xmlns="http://www.w3.org/2000/svg">
<path d="M88.855 67.5C89.5612 66.413 90 65.1883 90 64.0885V25.9114C90 24.8116 89.5618 23.5871 88.8553 22.5001L45 45.0001L88.855 67.5Z" fill="#00599C"/>
<path d="M48.897 89.1752L86.1028 70.0868C87.1746 69.5369 88.1487 68.5873 88.8549 67.5001L44.9999 45.0001L1.1449 67.5003C1.85107 68.5873 2.82549 69.5371 3.89696 70.0868L41.1028 89.1752C43.2461 90.275 46.7537 90.275 48.897 89.1752Z" fill="#004482"/>
<path d="M88.8553 22.4999C88.1488 21.4127 87.1744 20.4631 86.1029 19.9132L48.8971 0.824861C46.7538 -0.274954 43.2462 -0.274954 41.1029 0.824861L3.89706 19.9132C1.75353 21.0128 0 23.7122 0 25.9115V64.0885C0 65.1884 0.438529 66.4131 1.145 67.5001L45 45.0002L88.8553 22.4999Z" fill="#659AD2"/>
<path d="M45.0001 71.6591C28.4581 71.6591 15.0001 59.6999 15.0001 45.0001C15.0001 30.3002 28.4581 18.3411 45.0001 18.3411C55.6742 18.3411 65.6292 23.4455 70.9798 31.6622L57.9966 38.3385C55.3186 34.2257 50.3384 31.6706 45.0001 31.6706C36.7289 31.6706 30.0001 37.65 30.0001 45.0001C30.0001 52.3499 36.7289 58.3296 45.0001 58.3296C50.3389 58.3296 55.3192 55.7745 57.9975 51.6609L70.9807 58.3369C65.6301 66.5544 55.6748 71.6591 45.0001 71.6591Z" fill="white"/>
</svg>
