<svg width="90" height="90" viewBox="0 0 90 90" fill="none" xmlns="http://www.w3.org/2000/svg">
<path d="M89.6364 22.7728L89.8866 22.6273C89.3863 21.827 88.6358 21.0994 87.8854 20.7356L47.6115 0.509297C46.9445 0.145513 46.0272 0 45.0267 0C44.0261 0 43.1089 0.21827 42.4418 0.509297L2.4181 20.8084C1.00059 21.536 0 23.3549 0 24.7373V65.2627C0 66.0631 0.166765 66.9361 0.750444 67.7365L0.583679 67.8092C1.00059 68.3913 1.58427 68.9006 2.16795 69.1916L42.3584 89.4907C43.0255 89.8545 43.9427 90 44.9433 90C45.9439 90 46.8611 89.7817 47.5281 89.4907L87.5518 69.1916C88.9693 68.464 89.9699 66.6451 89.9699 65.2627V24.6645C90.0533 24.0825 89.9699 23.4276 89.6364 22.7728ZM45.0267 73.7025C26.8492 73.7025 12.0905 60.8246 12.0905 44.9636C12.0905 29.1027 26.8492 16.2247 45.0267 16.2247C57.2839 16.2247 67.9569 22.118 73.6269 30.7761L62.7872 36.2328C59.2851 30.7761 52.6145 27.1382 45.0267 27.1382C33.77 27.1382 24.5979 35.1415 24.5979 44.9636C24.5979 54.7858 33.77 62.789 45.0267 62.789C52.6145 62.789 59.2851 59.1512 62.7872 53.7672L73.5435 59.2967C67.8735 67.882 57.2005 73.7025 45.0267 73.7025ZM87.5518 43.5085H84.8836L84.1331 46.4188H87.5518V50.0566H83.3827L82.3821 54.422H78.2964L79.2969 50.0566H76.1284L75.1278 54.422H71.1254L72.126 50.0566H70.0415V46.4188H72.9599L73.7103 43.5085H70.0415V39.8707H74.4607L75.4613 35.5053H79.5471L78.5465 39.8707H81.715L82.7156 35.5053H86.718L85.7174 39.8707H87.5518V43.5085ZM76.9622 46.4188H80.1308L80.8812 43.5085H77.7127L76.9622 46.4188Z" fill="#68217A"/>
</svg>
