<svg width="90" height="90" viewBox="0 0 91 91" fill="none" xmlns="http://www.w3.org/2000/svg">
<path d="M32.5688 90.9109C40.936 90.9109 47.686 84.1609 47.686 75.7937V60.6765H32.5688C24.2017 60.6765 17.4517 67.4265 17.4517 75.7937C17.4517 84.1609 24.2017 90.9109 32.5688 90.9109Z" fill="#0ACF83"/>
<path d="M17.4517 45.5593C17.4517 37.1921 24.2017 30.4421 32.5688 30.4421H47.686V60.6765H32.5688C24.2017 60.6765 17.4517 53.9265 17.4517 45.5593Z" fill="#A259FF"/>
<path d="M17.4517 15.325C17.4517 6.95776 24.2017 0.207764 32.5688 0.207764H47.686V30.4421H32.5688C24.2017 30.4421 17.4517 23.6921 17.4517 15.325Z" fill="#F24E1E"/>
<path d="M47.686 0.207764H62.8032C71.1704 0.207764 77.9204 6.95776 77.9204 15.325C77.9204 23.6921 71.1704 30.4421 62.8032 30.4421H47.686V0.207764Z" fill="#FF7262"/>
<path d="M77.9204 45.5593C77.9204 53.9265 71.1704 60.6765 62.8032 60.6765C54.436 60.6765 47.686 53.9265 47.686 45.5593C47.686 37.1921 54.436 30.4421 62.8032 30.4421C71.1704 30.4421 77.9204 37.1921 77.9204 45.5593Z" fill="#1ABCFE"/>
</svg>
