<svg width="90" height="90" viewBox="0 0 100 91" fill="none" xmlns="http://www.w3.org/2000/svg">
<path d="M97.0457 41.2548L54.2927 2.50277C51.8322 0.27105 47.839 0.27105 45.3746 2.50277L36.4976 10.5507L47.7591 20.7587C50.377 19.9578 53.3774 20.495 55.4632 22.3857C57.5599 24.2884 58.1479 27.0313 57.2427 29.4121L68.0961 39.2509C70.7218 38.4303 73.7525 38.9605 75.8484 40.8646C78.7805 43.5203 78.7805 47.8255 75.8484 50.4826C75.1516 51.1145 74.3243 51.6158 73.4137 51.9578C72.5031 52.2998 71.5271 52.4758 70.5415 52.4758C69.5558 52.4758 68.5798 52.2998 67.6693 51.9578C66.7587 51.6158 65.9314 51.1145 65.2346 50.4826C64.1877 49.5331 63.4741 48.3241 63.1836 47.0077C62.893 45.6914 63.0385 44.3266 63.6018 43.085L53.4806 33.9107L53.479 58.0567C54.2133 58.3845 54.8838 58.8186 55.464 59.342C58.3946 61.9977 58.3946 66.3015 55.464 68.9629C52.5327 71.6186 47.7816 71.6186 44.8533 68.9629C41.9228 66.3022 41.9228 61.9984 44.8533 59.342C45.5554 58.7045 46.3906 58.2002 47.3099 57.8584V33.4888C46.3898 33.1479 45.5545 32.6432 44.8533 32.0045C42.6333 29.9936 42.0989 27.0404 43.2376 24.5682L32.1351 14.5044L2.82022 41.0755C1.63754 42.1479 0.973145 43.6021 0.973145 45.1185C0.973145 46.6348 1.63754 48.0891 2.82022 49.1614L45.574 87.9135C48.036 90.1452 52.0277 90.1452 54.4936 87.9135L97.0464 49.3414C98.2289 48.2688 98.893 46.8144 98.8929 45.298C98.8927 43.7816 98.2283 42.3273 97.0457 41.2548Z" fill="#F34F29"/>
</svg>
