<svg width="85" height="85" viewBox="0 0 85 85" fill="none" xmlns="http://www.w3.org/2000/svg">
<mask id="mask0_20_807" style="mask-type:luminance" maskUnits="userSpaceOnUse" x="6" y="1" width="73" height="83">
<path d="M6.72491 1.86914H78.2949V83.1291H6.72491V1.86914Z" fill="white"/>
</mask>
<g mask="url(#mask0_20_807)">
<path d="M13.2218 74.9798L6.70447 1.90662H78.315L71.7925 74.9697L42.464 83.0936L13.2218 74.9798Z" fill="#E44D26"/>
</g>
<path d="M66.2066 70.317L71.7825 7.88232H42.51V76.8857L66.2066 70.317Z" fill="#F16529"/>
<path d="M42.4794 16.8436H20.0287L22.4475 43.9456H42.5099V34.9843H30.6475L29.8277 25.8074H42.5099V16.8436H42.4794ZM42.5099 58.2298L42.4718 58.24L32.4874 55.5456L31.853 48.3983H22.8484L24.1048 62.4696L42.4692 67.5439L42.5099 67.5311V58.2298Z" fill="#EBEBEB"/>
<path d="M42.4794 43.9456H53.5194L52.5043 55.5658L42.5049 58.2628V67.5869L60.8846 62.4948L63.3465 34.9792H42.5099L42.4794 43.9456ZM64.7219 19.2489L64.9351 16.8436H42.4743V25.8047H64.1281L64.3058 23.7904L64.7219 19.2489Z" fill="white"/>
</svg>
