<svg width="113" height="114" viewBox="0 0 113 114" fill="none" xmlns="http://www.w3.org/2000/svg">
<path d="M18.3835 45.125H21.7408C22.0141 45.125 22.2875 45.125 22.5609 45.125C22.8513 45.125 23.0563 45.1853 23.1759 45.306C23.2785 45.3922 23.3383 45.5214 23.3553 45.6938C23.3724 45.8489 23.3981 46.0041 23.4322 46.1592C23.4664 46.435 23.5006 46.7194 23.5347 47.0124C23.586 47.2882 23.6287 47.5726 23.6629 47.8656C23.8508 48.9515 24.0046 50.0546 24.1242 51.175C24.2609 52.2954 24.4232 53.4071 24.6111 54.5103C24.6795 54.855 24.7307 55.2084 24.7649 55.5703C24.799 55.9323 24.8503 56.2856 24.9186 56.6304C24.9357 56.7166 24.9528 56.8027 24.9699 56.8889C24.987 56.9751 25.0297 57.044 25.098 57.0958C25.1322 57.113 25.1578 57.1302 25.1749 57.1475C25.2091 57.1647 25.2518 57.1561 25.3031 57.1216C25.4397 57.0871 25.5508 56.9837 25.6362 56.8114C25.7217 56.639 25.8071 56.4839 25.8925 56.346C26.0975 55.9495 26.294 55.5617 26.482 55.1825C26.6699 54.7861 26.8749 54.3896 27.097 53.9932C27.6438 52.9418 28.1905 51.8903 28.7372 50.8389C29.301 49.7702 29.8563 48.7016 30.403 47.6329C30.5397 47.3571 30.6764 47.09 30.8131 46.8314C30.9668 46.5556 31.1121 46.2798 31.2488 46.0041C31.3171 45.8662 31.394 45.7283 31.4794 45.5904C31.5648 45.4525 31.6844 45.3405 31.8382 45.2543C31.9578 45.1681 32.0945 45.125 32.2482 45.125C32.4191 45.125 32.59 45.125 32.7608 45.125H34.4266H36.195C36.3487 45.125 36.5025 45.125 36.6563 45.125C36.8271 45.125 36.9467 45.1595 37.0151 45.2284C37.1859 45.3318 37.2372 45.5301 37.1688 45.8231C37.1176 46.0989 37.0663 46.3833 37.0151 46.6763L36.2462 50.5545L34.3241 60.1725L33.8884 62.4218C33.8543 62.6114 33.8116 62.801 33.7603 62.9906C33.709 63.163 33.6236 63.2923 33.504 63.3785C33.3844 63.4646 33.2477 63.5164 33.094 63.5336C32.9402 63.5336 32.7693 63.5336 32.5814 63.5336H31.3513H30.6593C30.5397 63.4991 30.4287 63.4733 30.3261 63.456C30.2407 63.4388 30.1724 63.3785 30.1211 63.275C30.0699 63.1889 30.0528 63.0768 30.0699 62.9389C30.104 62.801 30.1382 62.6545 30.1724 62.4994L30.4287 61.1808L31.7613 54.5361C31.7955 54.2948 31.8297 54.0707 31.8638 53.8639C31.9151 53.6398 31.9578 53.4158 31.992 53.1917C32.0261 53.0538 32.0603 52.9159 32.0945 52.778C32.1286 52.6229 32.1457 52.4764 32.1457 52.3385C32.1287 52.2178 32.1287 52.0885 32.1457 51.9507C32.1799 51.8128 32.1543 51.7266 32.0689 51.6921C32.0176 51.6749 31.9749 51.6835 31.9407 51.718C31.9065 51.7524 31.8809 51.7783 31.8638 51.7955C31.7784 51.8645 31.7015 51.9507 31.6332 52.0541C31.5819 52.1403 31.5307 52.2264 31.4794 52.3126C31.3256 52.5712 31.1719 52.8383 31.0181 53.1141C30.8814 53.3899 30.7277 53.6657 30.5568 53.9415C30.5055 54.0449 30.4543 54.1483 30.403 54.2517C30.3689 54.3551 30.3176 54.4586 30.2493 54.562C30.1126 54.7861 29.9844 55.0101 29.8648 55.2342C29.7623 55.4583 29.6427 55.6824 29.5061 55.9064C29.4719 55.9581 29.4463 56.0185 29.4292 56.0874C29.4121 56.1391 29.3865 56.1908 29.3523 56.2425C29.2498 56.3977 29.1558 56.5614 29.0704 56.7338C29.002 56.9062 28.9081 57.0785 28.7885 57.2509C28.686 57.406 28.592 57.5698 28.5066 57.7421C28.4382 57.9145 28.3528 58.0869 28.2503 58.2592C27.9427 58.7591 27.6608 59.2676 27.4046 59.7846C27.1483 60.2845 26.8835 60.7844 26.6101 61.2842C26.5588 61.3359 26.5247 61.3876 26.5076 61.4394C26.5076 61.4911 26.482 61.5428 26.4307 61.5945C26.3111 61.7841 26.2 61.9823 26.0975 62.1891C26.0121 62.3787 25.9096 62.5683 25.79 62.7579C25.7217 62.8786 25.6533 62.9906 25.585 63.0941C25.5166 63.1975 25.4397 63.2837 25.3543 63.3526C25.2518 63.4216 25.1578 63.4646 25.0724 63.4819C24.987 63.4819 24.8759 63.4991 24.7393 63.5336H24.1498C24.0302 63.5336 23.885 63.5422 23.7141 63.5594C23.5604 63.5594 23.3981 63.5594 23.2272 63.5594C23.0734 63.5594 22.9282 63.5508 22.7915 63.5336C22.6548 63.5164 22.5609 63.4819 22.5096 63.4302C22.39 63.344 22.3131 63.2492 22.279 63.1458C22.2619 63.0251 22.2277 62.8872 22.1765 62.7321C22.1423 62.5253 22.1167 62.3184 22.0996 62.1116C22.0825 61.8875 22.0483 61.672 21.9971 61.4652L21.9714 61.2325C21.9202 61.0257 21.886 60.8102 21.8689 60.5861C21.8518 60.3448 21.8177 60.1208 21.7664 59.9139C21.7664 59.8622 21.7664 59.8191 21.7664 59.7846C21.7664 59.7329 21.7579 59.6812 21.7408 59.6295C21.6895 59.4744 21.6554 59.3106 21.6383 59.1383C21.6212 58.9659 21.5956 58.7936 21.5614 58.6212C21.5614 58.5867 21.5614 58.5436 21.5614 58.4919C21.5614 58.4402 21.5528 58.3971 21.5358 58.3626C21.5016 58.1903 21.476 58.0179 21.4589 57.8455C21.4589 57.6732 21.4332 57.5008 21.382 57.3284C21.3136 56.9837 21.2538 56.6218 21.2026 56.2425C21.1684 55.8633 21.1172 55.4928 21.0488 55.1308C20.9805 54.6999 20.9207 54.2603 20.8694 53.8122C20.8353 53.364 20.7584 52.9331 20.6388 52.5195C20.6046 52.2781 20.5533 52.0799 20.485 51.9248C20.4508 51.8903 20.4167 51.8645 20.3825 51.8472C20.3654 51.8128 20.3312 51.8128 20.28 51.8472C20.1775 51.8989 20.1091 51.9851 20.075 52.1058C20.0579 52.2264 20.0237 52.3471 19.9724 52.4678C19.9041 52.5884 19.8614 52.7177 19.8443 52.8556C19.8272 52.9762 19.8101 53.1055 19.7931 53.2434C19.7589 53.433 19.7162 53.6226 19.6649 53.8122C19.6307 54.0018 19.588 54.1914 19.5368 54.381L18.1785 61.2584L17.9222 62.5253C17.888 62.6631 17.8539 62.801 17.8197 62.9389C17.8026 63.0768 17.7514 63.1889 17.6659 63.275C17.5805 63.3957 17.4353 63.4733 17.2303 63.5077C17.1107 63.5422 16.9825 63.5594 16.8458 63.5594C16.7092 63.5422 16.5725 63.5336 16.4358 63.5336H15.1031C14.9152 63.5336 14.7443 63.5336 14.5906 63.5336C14.4368 63.5164 14.3172 63.4646 14.2318 63.3785C14.1464 63.2923 14.1122 63.163 14.1293 62.9906C14.1634 62.801 14.1976 62.6114 14.2318 62.4218L14.6675 60.1466L16.5896 50.5286L17.3071 46.909C17.3242 46.8056 17.3413 46.6849 17.3584 46.547C17.3926 46.3919 17.4267 46.2454 17.4609 46.1075C17.4951 45.9696 17.5292 45.8403 17.5634 45.7197C17.6147 45.5818 17.6574 45.4783 17.6916 45.4094C17.7941 45.2887 17.9478 45.2026 18.1529 45.1509C18.2041 45.1336 18.2383 45.1336 18.2554 45.1509C18.2895 45.1509 18.3323 45.1422 18.3835 45.125Z" fill="black"/>
<path d="M49.0153 62.5253C49.0153 62.7149 48.9982 62.9045 48.9641 63.0941C48.9299 63.2837 48.8188 63.4129 48.6309 63.4819C48.5113 63.5336 48.3832 63.5594 48.2465 63.5594C48.1098 63.5594 47.9731 63.5594 47.8364 63.5594H46.4525C46.2988 63.5594 46.145 63.5594 45.9912 63.5594C45.8545 63.5422 45.752 63.4991 45.6837 63.4302C45.5812 63.3612 45.5128 63.2664 45.4787 63.1458C45.4445 63.0079 45.3847 62.8958 45.2993 62.8097C45.2651 62.7752 45.2224 62.7493 45.1711 62.7321C45.137 62.6976 45.0772 62.689 44.9917 62.7062C44.8892 62.7407 44.7953 62.7838 44.7098 62.8355C44.6244 62.8872 44.539 62.9303 44.4536 62.9648C44.351 63.0337 44.24 63.0941 44.1204 63.1458C44.0179 63.1975 43.9068 63.2492 43.7872 63.3009C43.548 63.4043 43.3003 63.4905 43.044 63.5594C42.7877 63.6112 42.5315 63.6715 42.2752 63.7404C42.1385 63.7749 42.0104 63.7921 41.8908 63.7921C41.7882 63.8094 41.6772 63.8266 41.5576 63.8438C41.5063 63.8438 41.4551 63.8438 41.4038 63.8438C41.3526 63.8611 41.3013 63.8697 41.2501 63.8697H40.9681C40.7802 63.9042 40.6094 63.9042 40.4556 63.8697H40.2249C40.1053 63.8352 39.9857 63.818 39.8661 63.818C39.7636 63.8352 39.6611 63.8266 39.5586 63.7921C39.4048 63.7577 39.2511 63.7232 39.0973 63.6887C38.9435 63.6715 38.8069 63.6284 38.6873 63.5594C38.226 63.3698 37.8501 63.1285 37.5596 62.8355C37.2692 62.5253 37.0727 62.1202 36.9702 61.6203C36.936 61.4997 36.9104 61.3704 36.8933 61.2325C36.8933 61.0946 36.8848 60.9481 36.8677 60.793C36.8506 60.7068 36.8506 60.6206 36.8677 60.5344C36.9018 60.4483 36.9189 60.3621 36.9189 60.2759C36.9189 60.2242 36.9275 60.1208 36.9446 59.9656C36.9787 59.7933 37.0129 59.6726 37.0471 59.6037C37.1154 59.4313 37.1581 59.2848 37.1752 59.1641C37.2606 58.9745 37.3461 58.7849 37.4315 58.5953C37.534 58.3885 37.6451 58.2075 37.7647 58.0524C38.1405 57.5525 38.542 57.1733 38.9692 56.9148C39.3963 56.6562 39.9259 56.4322 40.5581 56.2425C40.7973 56.1564 41.0365 56.096 41.2757 56.0616C41.5149 56.0271 41.7626 55.984 42.0189 55.9323C42.1556 55.8978 42.3008 55.8806 42.4546 55.8806C42.6254 55.8633 42.7877 55.8375 42.9415 55.803C43.0611 55.7685 43.1807 55.7599 43.3003 55.7772C43.4199 55.7772 43.5566 55.7599 43.7103 55.7255C43.8299 55.691 43.9495 55.6737 44.0691 55.6737C44.1887 55.6737 44.3169 55.6565 44.4536 55.622C44.8294 55.5359 45.1711 55.4669 45.4787 55.4152C45.8033 55.3463 46.1108 55.1911 46.4013 54.9498C46.5721 54.7947 46.7088 54.6223 46.8113 54.4327C46.8284 54.381 46.837 54.3379 46.837 54.3034C46.837 54.269 46.8455 54.2345 46.8626 54.2C46.8968 54.1655 46.9138 54.1138 46.9138 54.0449C46.9309 53.9759 46.948 53.9242 46.9651 53.8898C46.9651 53.8208 46.9651 53.7519 46.9651 53.6829C46.9651 53.614 46.9651 53.5537 46.9651 53.5019C46.8967 52.9848 46.6063 52.6315 46.0937 52.4419C45.9571 52.3902 45.7777 52.3557 45.5556 52.3385C45.3505 52.304 45.137 52.2954 44.9149 52.3126C44.6927 52.3126 44.4706 52.3299 44.2485 52.3643C44.0435 52.3988 43.8641 52.4419 43.7103 52.4936C43.5907 52.5281 43.4797 52.5798 43.3772 52.6487C43.2747 52.7004 43.1722 52.7608 43.0696 52.8297C42.9671 52.8987 42.8561 52.9935 42.7365 53.1141C42.6169 53.2348 42.5315 53.3468 42.4802 53.4502C42.3606 53.6226 42.2581 53.7863 42.1727 53.9415C42.0872 54.0966 41.942 54.2 41.737 54.2517C41.6003 54.2862 41.4551 54.3034 41.3013 54.3034C41.1475 54.3034 40.9938 54.3034 40.84 54.3034H39.8661C39.7807 54.3034 39.6868 54.3121 39.5842 54.3293C39.4988 54.3293 39.4305 54.3207 39.3792 54.3034H39.1486C39.1144 54.2862 39.0717 54.2776 39.0204 54.2776C38.9692 54.2776 38.9265 54.2604 38.8923 54.2259C38.7727 54.1914 38.7043 54.0794 38.6873 53.8898C38.6873 53.8036 38.7043 53.7174 38.7385 53.6312C38.7727 53.545 38.8069 53.4675 38.841 53.3985C38.9265 53.2089 39.0119 53.0366 39.0973 52.8814C39.1998 52.7091 39.3023 52.5539 39.4048 52.416C39.4732 52.3299 39.5415 52.2437 39.6099 52.1575C39.6782 52.0713 39.7465 51.9851 39.8149 51.8989C39.9857 51.7093 40.1908 51.5284 40.43 51.356C40.4812 51.3388 40.541 51.2957 40.6094 51.2267C40.7119 51.1578 40.7973 51.0975 40.8656 51.0457C40.9511 50.994 41.045 50.9423 41.1475 50.8906C41.4722 50.701 41.8053 50.5545 42.147 50.4511C42.5058 50.3304 42.8646 50.2184 43.2234 50.115C43.4455 50.0633 43.6676 50.0288 43.8897 50.0116C44.1118 49.9943 44.3425 49.9598 44.5817 49.9081C44.65 49.8909 44.7525 49.8909 44.8892 49.9081C45.0259 49.9254 45.1199 49.9167 45.1711 49.8823C45.8716 49.865 46.5294 49.8909 47.1445 49.9598C47.7766 50.0288 48.3319 50.1581 48.8103 50.3477C49.3058 50.5373 49.7073 50.7958 50.0148 51.1233C50.3394 51.4336 50.553 51.8386 50.6555 52.3385C50.7068 52.6315 50.7068 52.9676 50.6555 53.3468C50.6043 53.726 50.5359 54.1138 50.4505 54.5103L49.2972 60.2759C49.246 60.6034 49.1862 60.9395 49.1178 61.2842C49.0495 61.6117 49.0239 61.9134 49.041 62.1891C49.041 62.2409 49.0324 62.3012 49.0153 62.3701C49.0153 62.4218 49.0153 62.4735 49.0153 62.5253ZM46.0425 58.5436C46.0767 58.4574 46.1023 58.3626 46.1194 58.2592C46.1365 58.1386 46.145 58.0351 46.145 57.949C46.145 57.8455 46.1535 57.7507 46.1706 57.6646C46.1877 57.5784 46.1621 57.5094 46.0937 57.4577C46.0254 57.3888 45.9058 57.3543 45.7349 57.3543C45.6666 57.3715 45.6068 57.3888 45.5556 57.406C45.5043 57.406 45.436 57.4146 45.3505 57.4319C45.2309 57.4663 45.1028 57.4922 44.9661 57.5094C44.8294 57.5267 44.6842 57.5525 44.5304 57.587C44.4792 57.6042 44.4023 57.6129 44.2998 57.6129C44.0606 57.6646 43.8299 57.699 43.6078 57.7163C43.3857 57.7335 43.1636 57.7766 42.9415 57.8455C42.8048 57.88 42.6681 57.9145 42.5315 57.949C42.4119 57.9662 42.2923 58.0007 42.1727 58.0524C41.7797 58.2075 41.4295 58.4402 41.1219 58.7505C40.8144 59.0607 40.635 59.4916 40.5837 60.0432C40.5666 60.3362 40.6179 60.5775 40.7375 60.7671C40.8058 60.9567 40.9511 61.1119 41.1732 61.2325C41.3953 61.3359 41.643 61.4135 41.9164 61.4652C42.1897 61.5169 42.4802 61.5342 42.7877 61.5169C43.1124 61.4824 43.4199 61.4221 43.7103 61.3359C44.1887 61.198 44.5817 60.9826 44.8892 60.6896C45.2138 60.3793 45.4872 60.0001 45.7093 59.552C45.7606 59.4313 45.8033 59.3106 45.8375 59.19C45.8716 59.0521 45.9229 58.9142 45.9912 58.7763L46.0425 58.5436Z" fill="black"/>
<path d="M78.7374 56.7596C78.7374 56.8975 78.7032 57.0527 78.6348 57.225C78.5665 57.3974 78.4811 57.5094 78.3786 57.5611C78.2931 57.6301 78.165 57.6818 77.9941 57.7163C77.8233 57.7335 77.6354 57.7507 77.4303 57.768C77.2424 57.768 77.0459 57.768 76.8409 57.768C76.6529 57.7507 76.4821 57.7421 76.3283 57.7421H70.0751C69.9555 57.7421 69.8359 57.7421 69.7163 57.7421C69.6138 57.7421 69.5198 57.7594 69.4344 57.7938C69.2806 57.8628 69.1781 57.9317 69.1269 58.0007C69.0927 58.0351 69.0414 58.1041 68.9731 58.2075C68.9218 58.2937 68.8962 58.3799 68.8962 58.4661C68.9133 58.5695 68.9133 58.6729 68.8962 58.7763C68.8962 58.8625 68.9048 58.9573 68.9218 59.0607C68.9731 59.4744 69.0671 59.8191 69.2038 60.0949C69.3575 60.3534 69.5796 60.5861 69.8701 60.793C69.9897 60.8792 70.1178 60.9395 70.2545 60.974C70.4083 60.9912 70.5535 61.0257 70.6902 61.0774C70.8269 61.1119 71.0063 61.1377 71.2284 61.1549C71.4676 61.1722 71.6811 61.1636 71.8691 61.1291H72.0997C72.2706 61.0946 72.4329 61.0601 72.5866 61.0257C72.7404 60.974 72.8942 60.9223 73.048 60.8705C73.2359 60.7844 73.4495 60.6723 73.6886 60.5344C73.9278 60.3965 74.1158 60.2586 74.2525 60.1208C74.355 60.0001 74.466 59.8881 74.5856 59.7846C74.7052 59.664 74.8334 59.5778 74.97 59.5261C75.158 59.4399 75.3801 59.4054 75.6364 59.4227C75.9097 59.4227 76.1575 59.4227 76.3796 59.4227C76.4821 59.4227 76.5846 59.4227 76.6871 59.4227C76.8067 59.4054 76.9092 59.4141 76.9947 59.4485H77.2509C77.4047 59.483 77.5158 59.5261 77.5841 59.5778C77.6354 59.6123 77.6524 59.6898 77.6354 59.8105C77.6354 59.9312 77.6097 60.0346 77.5585 60.1208C77.4218 60.3621 77.2766 60.5775 77.1228 60.7671C76.9861 60.9567 76.8323 61.1463 76.6615 61.3359C76.1831 61.9047 75.6705 62.3615 75.1238 62.7062C74.5771 63.051 73.9193 63.344 73.1505 63.5853C72.9454 63.6542 72.749 63.6973 72.561 63.7146C72.3731 63.7318 72.1681 63.7663 71.9459 63.818C71.8776 63.8352 71.8007 63.8352 71.7153 63.818C71.647 63.818 71.5786 63.8266 71.5103 63.8438H71.2284C71.1259 63.8783 71.0233 63.8869 70.9208 63.8697C70.8183 63.8697 70.7243 63.8611 70.6389 63.8438C70.5022 63.8266 70.3826 63.8266 70.2801 63.8438C70.1776 63.8611 70.0666 63.8525 69.947 63.818C69.8615 63.7835 69.7676 63.7663 69.6651 63.7663C69.5625 63.7663 69.4771 63.749 69.4088 63.7146C69.2208 63.6801 69.0329 63.637 68.845 63.5853C68.6741 63.5508 68.5203 63.4905 68.3837 63.4043C68.2128 63.3354 68.0505 63.275 67.8967 63.2233C67.743 63.1544 67.6063 63.0768 67.4867 62.9906C67.0083 62.6459 66.5982 62.2495 66.2565 61.8013C65.9319 61.3359 65.6927 60.8016 65.539 60.1983C65.4877 60.0087 65.4535 59.8191 65.4364 59.6295C65.4364 59.4227 65.4108 59.2158 65.3596 59.009C65.3596 58.9401 65.3596 58.8797 65.3596 58.828C65.3766 58.7591 65.3852 58.6901 65.3852 58.6212C65.3681 58.4143 65.3681 58.1903 65.3852 57.949C65.4194 57.7076 65.4535 57.4663 65.4877 57.225C65.5048 57.1388 65.5133 57.044 65.5133 56.9406C65.5304 56.8372 65.556 56.7424 65.5902 56.6562L65.6671 56.346L65.8721 55.7254C65.9917 55.4324 66.1028 55.148 66.2053 54.8722C66.3078 54.5965 66.4359 54.3379 66.5897 54.0966C67.6832 52.304 69.1867 51.0371 71.1002 50.2959C71.3565 50.1925 71.6128 50.1236 71.8691 50.0891C72.1253 50.0374 72.3987 49.9771 72.6892 49.9081C72.8258 49.8909 72.954 49.8823 73.0736 49.8823C73.1932 49.8823 73.3213 49.8737 73.458 49.8564C74.3293 49.8392 75.0555 49.9426 75.6364 50.1667C76.2173 50.3735 76.7213 50.6493 77.1484 50.994C77.2851 51.0974 77.4132 51.2181 77.5328 51.356C77.6695 51.4766 77.7806 51.6059 77.866 51.7438C77.9002 51.83 77.96 51.8989 78.0454 51.9507C78.1479 52.1403 78.2333 52.3385 78.3017 52.5453C78.3871 52.7349 78.4811 52.9331 78.5836 53.14C78.6348 53.2951 78.669 53.4588 78.6861 53.6312C78.7203 53.7863 78.7544 53.9587 78.7886 54.1483C78.8228 54.3724 78.8399 54.6051 78.8399 54.8464C78.857 55.0877 78.874 55.329 78.8911 55.5703C78.8911 55.7082 78.8655 55.8633 78.8142 56.0357C78.7801 56.1908 78.7715 56.3373 78.7886 56.4752L78.7374 56.7596ZM75.1751 55.2342C75.3288 55.0618 75.3801 54.855 75.3288 54.6137C75.2947 54.3551 75.269 54.1655 75.252 54.0449C75.0982 53.5795 74.8505 53.2262 74.5087 52.9848C74.167 52.7263 73.6459 52.5884 72.9454 52.5712C72.8942 52.6056 72.8344 52.6143 72.766 52.597C72.6977 52.5798 72.6379 52.5798 72.5866 52.597C72.4841 52.6315 72.3816 52.6573 72.2791 52.6746C72.1766 52.6746 72.0826 52.6918 71.9972 52.7263C71.1942 52.9676 70.5449 53.4416 70.0495 54.1483C69.9982 54.2173 69.9384 54.3121 69.8701 54.4327C69.8017 54.5361 69.7505 54.6482 69.7163 54.7688C69.6821 54.8722 69.6651 54.9757 69.6651 55.0791C69.6651 55.1825 69.7078 55.2687 69.7932 55.3376C69.9128 55.4238 70.0922 55.4669 70.3314 55.4669C70.5706 55.4669 70.8012 55.4669 71.0233 55.4669H73.868C74.1072 55.4669 74.355 55.4669 74.6113 55.4669C74.8846 55.4497 75.0726 55.3721 75.1751 55.2342Z" fill="black"/>
<path d="M89.7886 49.8823C90.8138 49.8478 91.6339 49.9943 92.2489 50.3218C92.8811 50.6493 93.3253 51.132 93.5816 51.7697C93.667 51.9593 93.7183 52.1661 93.7354 52.3902C93.7695 52.5971 93.7952 52.8125 93.8122 53.0366C93.8293 53.1745 93.8293 53.3038 93.8122 53.4244C93.7952 53.5451 93.7952 53.6657 93.8122 53.7864C93.7781 53.8898 93.7695 53.9587 93.7866 53.9932C93.7695 54.2345 93.7354 54.4845 93.6841 54.743C93.6328 55.0015 93.5816 55.2515 93.5303 55.4928L93.0947 57.7939L92.2489 61.9823C92.1806 62.3098 92.1122 62.6287 92.0439 62.939C91.9756 63.232 91.8133 63.4216 91.557 63.5078C91.4545 63.5422 91.3349 63.5595 91.1982 63.5595C91.0615 63.5595 90.9248 63.5595 90.7881 63.5595H89.4042C89.1992 63.5595 89.0198 63.5509 88.866 63.5336C88.7123 63.4991 88.6012 63.4216 88.5329 63.3009C88.4816 63.1975 88.4645 63.0682 88.4816 62.9131C88.5158 62.7407 88.55 62.5598 88.5841 62.3702L88.9429 60.5603L89.7118 56.708C89.8314 56.0702 89.9168 55.4842 89.968 54.9498C90.0364 54.3983 89.9766 53.9329 89.7886 53.5537C89.6178 53.209 89.3188 52.9676 88.8917 52.8297C88.8062 52.7953 88.7123 52.778 88.6098 52.778C88.5243 52.778 88.4389 52.7608 88.3535 52.7263C88.2681 52.7091 88.157 52.7091 88.0203 52.7263C87.9007 52.7263 87.8067 52.7349 87.7384 52.7522C87.653 52.7694 87.5846 52.778 87.5334 52.778C87.4821 52.778 87.4309 52.7867 87.3796 52.8039C86.9696 52.9073 86.6279 53.0452 86.3545 53.2176C85.7223 53.614 85.2781 54.1914 85.0218 54.9498C84.7827 55.7082 84.5691 56.5615 84.3811 57.5095L83.7404 60.7413L83.4329 62.3184C83.3987 62.4736 83.3646 62.6287 83.3304 62.7838C83.2962 62.939 83.245 63.0682 83.1766 63.1717C83.057 63.3613 82.8947 63.4733 82.6897 63.5078C82.5018 63.5422 82.2711 63.5595 81.9977 63.5595H80.7163C80.5284 63.5595 80.3405 63.5509 80.1525 63.5336C79.9646 63.5164 79.845 63.4561 79.7937 63.3526C79.6912 63.1975 79.6741 62.9734 79.7425 62.6804C79.8108 62.3874 79.8706 62.1116 79.9219 61.8531L80.6138 58.3368L81.7415 52.6488L82.0234 51.3302C82.0575 51.1406 82.0917 50.9682 82.1259 50.8131C82.1601 50.6579 82.2369 50.5287 82.3565 50.4253C82.3907 50.3735 82.4505 50.3391 82.5359 50.3218C82.6214 50.2874 82.7068 50.2615 82.7922 50.2443H82.9203C83.0058 50.227 83.0912 50.2184 83.1766 50.2184C83.2791 50.2184 83.3731 50.2184 83.4585 50.2184H84.5349C84.6716 50.2184 84.7997 50.227 84.9193 50.2443C85.056 50.2443 85.1756 50.2615 85.2781 50.296C85.3806 50.3477 85.4404 50.4253 85.4575 50.5287C85.4917 50.6321 85.5088 50.7527 85.5088 50.8906C85.5088 50.9596 85.5002 51.0199 85.4831 51.0716C85.4661 51.1233 85.4661 51.175 85.4831 51.2268C85.5002 51.3129 85.5173 51.3646 85.5344 51.3819C85.5686 51.3991 85.6113 51.425 85.6625 51.4594C85.8334 51.4767 85.9957 51.4164 86.1495 51.2785C86.3032 51.1233 86.457 51.0027 86.6108 50.9165C87.1404 50.5718 87.7042 50.296 88.3022 50.0891C88.4731 50.0374 88.6354 50.003 88.7892 49.9857C88.96 49.9685 89.1479 49.9426 89.353 49.9082C89.4042 49.8909 89.4811 49.8909 89.5836 49.9082C89.6861 49.9082 89.7545 49.8995 89.7886 49.8823Z" fill="black"/>
<path d="M96.1345 49.8619C96.1516 49.8757 96.1602 49.905 96.1602 49.9498C96.1602 49.9947 96.1516 50.036 96.1345 50.0739L96.1294 50.1153C96.1157 50.1463 96.1004 50.1722 96.0833 50.1929C96.0696 50.2101 96.0474 50.2239 96.0166 50.2342C95.9859 50.2411 95.9432 50.2446 95.8885 50.2446C95.8338 50.2411 95.7877 50.2394 95.7501 50.2394H95.6732C95.6561 50.2463 95.6408 50.248 95.6271 50.2446C95.6134 50.2411 95.5998 50.2429 95.5861 50.2498C95.5485 50.2635 95.516 50.2963 95.4887 50.348C95.4785 50.3652 95.4716 50.3859 95.4682 50.4101C95.4648 50.4342 95.4614 50.4583 95.458 50.4825L95.2119 51.7028C95.2085 51.72 95.2068 51.7355 95.2068 51.7493C95.2068 51.7631 95.2034 51.7769 95.1966 51.7907L95.1863 51.8321C95.1829 51.8424 95.1795 51.8528 95.176 51.8631C95.176 51.8734 95.1709 51.8821 95.1607 51.8889C95.147 51.9165 95.1248 51.9355 95.094 51.9458C95.0769 51.9527 95.0564 51.9562 95.0325 51.9562C95.012 51.9562 94.9881 51.9562 94.9608 51.9562C94.9129 51.9562 94.86 51.9562 94.8019 51.9562C94.7438 51.9562 94.7045 51.9424 94.684 51.9148C94.6737 51.8941 94.6703 51.87 94.6737 51.8424C94.6806 51.8148 94.6874 51.7838 94.6942 51.7493L94.9351 50.529C94.9386 50.5118 94.942 50.4945 94.9454 50.4773C94.9522 50.46 94.9539 50.4445 94.9505 50.4307L94.9608 50.3583C94.9642 50.3032 94.9471 50.2687 94.9095 50.2549C94.8788 50.2377 94.8326 50.2308 94.7711 50.2342C94.713 50.2377 94.6618 50.2394 94.6174 50.2394C94.6003 50.2394 94.5832 50.2411 94.5661 50.2446C94.5524 50.2446 94.5405 50.2429 94.5302 50.2394C94.5166 50.2325 94.5046 50.2308 94.4943 50.2342C94.4841 50.2342 94.4738 50.2325 94.4636 50.2291C94.4294 50.2118 94.414 50.1843 94.4175 50.1463C94.4209 50.1084 94.4277 50.0636 94.438 50.0119C94.4414 49.9912 94.4448 49.9723 94.4482 49.955C94.455 49.9378 94.4636 49.9205 94.4738 49.9033C94.4841 49.8861 94.4978 49.874 94.5148 49.8671C94.5319 49.8568 94.549 49.8481 94.5661 49.8413C94.5763 49.8378 94.5832 49.8378 94.5866 49.8413C94.5934 49.8413 94.602 49.8395 94.6122 49.8361H95.9808C96.0115 49.8361 96.0406 49.8378 96.0679 49.8413C96.0952 49.8413 96.1174 49.8481 96.1345 49.8619ZM98.8613 49.8723C98.875 49.8964 98.8784 49.924 98.8716 49.955C98.8682 49.986 98.8631 50.0205 98.8562 50.0584L98.5231 51.739C98.5162 51.7769 98.5077 51.8114 98.4974 51.8424C98.4906 51.87 98.4786 51.8941 98.4615 51.9148C98.4376 51.9424 98.4 51.9562 98.3488 51.9562C98.3009 51.9562 98.2531 51.9562 98.2053 51.9562C98.1848 51.9562 98.1626 51.9579 98.1386 51.9613C98.1181 51.9613 98.1011 51.9579 98.0874 51.951C98.0566 51.9407 98.0378 51.9251 98.031 51.9045C98.0276 51.8838 98.0259 51.8579 98.0259 51.8269L98.0412 51.739C98.0412 51.7286 98.043 51.7166 98.0464 51.7028C98.0498 51.6856 98.0532 51.67 98.0566 51.6563L98.1899 50.9995C98.1967 50.9582 98.2036 50.9168 98.2104 50.8754C98.2206 50.8341 98.2258 50.7962 98.2258 50.7617C98.2224 50.7444 98.2206 50.7307 98.2206 50.7203C98.2206 50.7065 98.2155 50.6962 98.2053 50.6893C98.2019 50.6858 98.1967 50.6841 98.1899 50.6841C98.1796 50.691 98.1677 50.6979 98.154 50.7048C98.1198 50.7462 98.0891 50.7927 98.0618 50.8444C98.0344 50.8961 98.0054 50.9461 97.9746 50.9944C97.9131 51.1012 97.8533 51.2098 97.7952 51.3201C97.7371 51.427 97.6773 51.5322 97.6158 51.6356C97.5885 51.6838 97.5594 51.739 97.5287 51.801C97.4979 51.8596 97.4621 51.9027 97.4211 51.9303C97.4006 51.9441 97.3766 51.9527 97.3493 51.9562C97.322 51.9562 97.2929 51.9562 97.2622 51.9562H97.1853C97.1682 51.9493 97.1528 51.9441 97.1391 51.9407C97.1255 51.9338 97.1135 51.9251 97.1033 51.9148C97.093 51.9045 97.0862 51.8907 97.0828 51.8734C97.0793 51.8562 97.0759 51.839 97.0725 51.8217C97.0623 51.7907 97.0554 51.7597 97.052 51.7286C97.0486 51.6942 97.0435 51.6597 97.0366 51.6252C97.0161 51.5253 96.999 51.4236 96.9854 51.3201C96.9717 51.2133 96.9546 51.1099 96.9341 51.0099C96.9239 50.9513 96.9136 50.8927 96.9034 50.8341C96.8965 50.7755 96.8777 50.7255 96.847 50.6841C96.8402 50.6841 96.835 50.6858 96.8316 50.6893C96.8282 50.6893 96.8248 50.6893 96.8214 50.6893C96.8043 50.7031 96.7923 50.7186 96.7855 50.7358C96.7752 50.7531 96.7684 50.7703 96.765 50.7875C96.765 50.8013 96.7616 50.8168 96.7547 50.8341L96.7394 50.922C96.7325 50.9358 96.7274 50.9496 96.724 50.9633C96.7206 50.9771 96.7189 50.9892 96.7189 50.9995L96.5958 51.5994C96.589 51.6442 96.5788 51.6993 96.5651 51.7648C96.5548 51.8269 96.5395 51.8717 96.519 51.8993C96.5087 51.9062 96.4984 51.9148 96.4882 51.9251C96.4814 51.932 96.4728 51.9372 96.4626 51.9407C96.4455 51.9476 96.425 51.9527 96.4011 51.9562C96.3806 51.9562 96.3566 51.9562 96.3293 51.9562C96.2849 51.9562 96.2405 51.9562 96.196 51.9562C96.1516 51.9562 96.1174 51.9458 96.0935 51.9251C96.0764 51.9114 96.0679 51.8889 96.0679 51.8579C96.0713 51.8269 96.0764 51.7924 96.0833 51.7545L96.4216 50.0481C96.4284 50.0171 96.4352 49.9878 96.4421 49.9602C96.4523 49.9292 96.4643 49.905 96.4779 49.8878C96.495 49.8637 96.5224 49.8481 96.56 49.8413C96.5702 49.8378 96.577 49.8378 96.5805 49.8413C96.5873 49.8413 96.5958 49.8395 96.6061 49.8361H96.9444C96.982 49.8361 97.0178 49.8361 97.052 49.8361C97.0862 49.8361 97.1118 49.8447 97.1289 49.8619C97.1562 49.8826 97.1716 49.9154 97.175 49.9602C97.1819 50.005 97.1904 50.0464 97.2007 50.0843C97.2177 50.1808 97.2348 50.2791 97.2519 50.379C97.269 50.4756 97.2861 50.5738 97.3032 50.6738C97.3168 50.7255 97.3271 50.7789 97.3339 50.8341C97.3442 50.8892 97.3544 50.9427 97.3647 50.9944C97.3715 51.0151 97.3766 51.0375 97.38 51.0616C97.3869 51.0823 97.4006 51.0961 97.4211 51.103C97.4381 51.1099 97.4535 51.1064 97.4672 51.0926C97.4843 51.0788 97.4962 51.0668 97.5031 51.0564C97.5372 51.0185 97.5646 50.9789 97.5851 50.9375C97.609 50.8927 97.6329 50.8496 97.6568 50.8082C97.7286 50.6945 97.7952 50.579 97.8567 50.4618C97.9217 50.3411 97.99 50.2239 98.0618 50.1101C98.0891 50.0619 98.1164 50.0119 98.1438 49.9602C98.1745 49.905 98.2155 49.8671 98.2668 49.8464C98.2907 49.8395 98.3146 49.8361 98.3385 49.8361C98.3659 49.8361 98.3932 49.8361 98.4205 49.8361H98.6461C98.6666 49.8361 98.6871 49.8361 98.7076 49.8361C98.7281 49.8326 98.7469 49.8326 98.764 49.8361H98.7896C98.8033 49.843 98.8169 49.8481 98.8306 49.8516C98.8477 49.855 98.8579 49.8619 98.8613 49.8723Z" fill="black"/>
<path d="M64.9548 49.6913C64.644 49.8201 64.098 50.229 63.4322 50.8406L63.81 51.9087C64.2506 51.4352 64.6935 51.0179 65.1265 50.6693C65.1582 50.6425 65.1777 50.6279 65.1777 50.6279C65.1616 50.643 65.1426 50.6542 65.1265 50.6693C64.9846 50.7847 64.5544 51.1618 63.8751 51.9394C64.4136 51.9917 65.25 52.0042 65.9376 51.9876C66.301 50.8933 65.9804 50.3203 65.9804 50.3203C65.9804 50.3203 65.5948 49.4261 64.9548 49.6913Z" fill="url(#paint0_linear_21_1178)"/>
<path d="M61.9934 57.7559C61.9234 57.7595 61.8539 57.7596 61.7844 57.7597C61.8189 57.7614 61.8573 57.7601 61.8923 57.7583C61.9268 57.76 61.9618 57.7582 61.9934 57.7559Z" fill="#BE202E"/>
<path opacity="0.35" d="M61.9934 57.7559C61.9234 57.7595 61.8539 57.7596 61.7844 57.7597C61.8189 57.7614 61.8573 57.7601 61.8923 57.7583C61.9268 57.76 61.9618 57.7582 61.9934 57.7559Z" fill="#BE202E"/>
<path d="M62.2966 56.9136C62.2932 56.9131 62.2932 56.9131 62.2966 56.9136C62.3068 56.9151 62.3175 56.9132 62.3277 56.9147C62.373 56.9144 62.4182 56.9142 62.4605 56.91C62.408 56.9127 62.3525 56.9114 62.2966 56.9136Z" fill="#BE202E"/>
<path opacity="0.35" d="M62.2966 56.9136C62.2932 56.9131 62.2932 56.9131 62.2966 56.9136C62.3068 56.9151 62.3175 56.9132 62.3277 56.9147C62.373 56.9144 62.4182 56.9142 62.4605 56.91C62.408 56.9127 62.3525 56.9114 62.2966 56.9136Z" fill="#BE202E"/>
<path d="M61.9006 54.2422C62.1039 53.9677 62.3062 53.7001 62.5074 53.4393C62.717 53.1692 62.9285 52.91 63.1424 52.6581C63.1551 52.6425 63.1678 52.6269 63.18 52.6147C63.3896 52.3691 63.5976 52.1339 63.8075 51.9094L63.429 50.8442C63.3846 50.8866 63.3368 50.9285 63.2884 50.9739C63.1113 51.1401 62.9253 51.3191 62.7339 51.5113C62.5182 51.7279 62.297 51.9577 62.0671 52.2002C61.8571 52.4246 61.6418 52.6623 61.4254 52.9068C61.2418 53.1177 61.0577 53.332 60.8726 53.5531C60.8643 53.5624 60.8599 53.5687 60.8516 53.578L61.3348 55.0267C61.5258 54.7644 61.7135 54.5016 61.9006 54.2422Z" fill="url(#paint1_linear_21_1178)"/>
<path d="M57.7063 61.3941C57.5821 61.6277 57.4535 61.8677 57.3273 62.115C57.3268 62.1185 57.3229 62.1214 57.3224 62.1248C57.3033 62.1605 57.2848 62.1927 57.2691 62.2289C57.1825 62.3946 57.1087 62.5447 56.9346 62.8829C57.1221 63.0054 57.2474 63.2691 57.3576 63.5657C57.3817 63.2786 57.3046 62.994 57.113 62.7554C58.0906 62.9465 58.978 62.8231 59.5189 62.1614C59.5658 62.1018 59.6131 62.0388 59.6576 61.9719C59.42 62.1957 59.159 62.2688 58.6965 62.1719C59.4255 61.9654 59.8125 61.7184 60.1864 61.2734C60.2747 61.1675 60.3646 61.0513 60.4564 60.9214C59.7674 61.4526 59.0475 61.5239 58.3348 61.2812L57.7777 61.2612C57.7537 61.3067 57.7302 61.3487 57.7063 61.3941Z" fill="url(#paint2_linear_21_1178)"/>
<path d="M58.1446 60.1912C58.3085 59.9003 58.4764 59.6064 58.6447 59.3091C58.8077 59.0251 58.974 58.7415 59.1443 58.4551C59.3145 58.1686 59.4882 57.8826 59.6619 57.5966C59.8399 57.3043 60.0209 57.0159 60.2053 56.7281C60.3858 56.4431 60.5731 56.1592 60.7565 55.8782C60.8235 55.776 60.89 55.6773 60.9604 55.5757C61.0758 55.4036 61.1946 55.2321 61.3134 55.0606C61.3183 55.0509 61.3266 55.0416 61.3315 55.0318L60.8544 53.5873C60.8417 53.603 60.8285 53.622 60.8124 53.6371C60.6179 53.8744 60.4195 54.1147 60.227 54.3628C60.0305 54.6138 59.8369 54.8688 59.6458 55.1312C59.485 55.3525 59.3275 55.5743 59.1696 55.7995C59.1388 55.844 59.1075 55.8919 59.0767 55.9364C58.886 56.2198 58.7065 56.4979 58.546 56.7648C58.3631 57.0669 58.1991 57.3578 58.0513 57.6336C57.9554 57.8155 57.8638 57.9911 57.7801 58.1608C57.7106 58.3046 57.6439 58.4524 57.5778 58.5967C57.424 58.9382 57.2872 59.2822 57.164 59.6282L57.6498 61.0845C57.7737 60.8542 57.9043 60.6249 58.0326 60.3882C58.0697 60.3237 58.1069 60.2591 58.1446 60.1912Z" fill="url(#paint3_linear_21_1178)"/>
<path d="M57.1462 59.6799C56.9984 60.0995 56.8744 60.5226 56.7812 60.9502C56.7792 60.9639 56.7733 60.9806 56.7713 60.9943C56.6095 60.6198 56.0851 60.1983 56.088 60.2023C56.411 60.8601 56.636 61.4963 56.5965 62.0826C56.3717 62.0947 56.081 61.9849 55.7549 61.8067C56.0683 62.1932 56.3243 62.326 56.4266 62.3657C56.0928 62.337 55.715 62.5156 55.3289 62.728C55.8674 62.5944 56.292 62.5735 56.5754 62.6857C55.9161 63.9437 55.2364 65.3424 54.5438 66.8302C54.693 66.8104 54.7927 66.7236 54.8593 66.6003C54.9818 66.3312 55.8058 64.5616 57.024 62.2584C57.0578 62.1933 57.095 62.1288 57.1293 62.0603C57.1391 62.0407 57.1484 62.0246 57.1582 62.005C57.287 61.7649 57.4203 61.5184 57.5579 61.2655C57.5907 61.2073 57.6196 61.1521 57.6524 61.0939L57.6529 61.0904L57.1668 59.6339C57.1575 59.6501 57.1521 59.6633 57.1462 59.6799Z" fill="url(#paint4_linear_21_1178)"/>
<path d="M61.4226 55.1643C61.3962 55.2024 61.3737 55.2376 61.3473 55.2757C61.2716 55.3905 61.1924 55.5048 61.1162 55.6231C61.0316 55.7506 60.9466 55.8815 60.8577 56.0154C60.8132 56.0823 60.7687 56.1492 60.7238 56.2196C60.5894 56.4272 60.454 56.6417 60.3142 56.8626C60.1426 57.1347 59.9696 57.4172 59.7912 57.7128C59.622 57.9923 59.4475 58.2851 59.272 58.5846C59.1053 58.8715 58.9341 59.1648 58.761 59.4717C58.607 59.743 58.4515 60.0245 58.2916 60.3124C58.2828 60.3251 58.2769 60.3418 58.2681 60.3545C58.1121 60.6395 57.9512 60.9342 57.7893 61.2358C57.7849 61.2422 57.7805 61.2485 57.7795 61.2554L58.3368 61.2754C58.3271 61.2704 58.3169 61.2689 58.3037 61.2634C58.973 61.279 59.9163 60.9152 60.5665 60.3886C60.866 60.146 61.1486 59.8519 61.4226 59.4969C61.6277 59.2333 61.8237 58.9367 62.0217 58.6019C62.1923 58.3121 62.3635 57.9944 62.5319 57.6482C62.3706 57.7047 62.1885 57.7372 61.9918 57.7499C61.9567 57.7517 61.9217 57.7535 61.8866 57.7552C61.8516 57.757 61.817 57.7554 61.7785 57.7567C62.4258 57.6114 62.8766 57.2127 63.2372 56.692C63.0613 56.7779 62.7782 56.8828 62.4544 56.9082C62.4121 56.9124 62.3668 56.9126 62.3215 56.9129C62.3113 56.9114 62.3006 56.9133 62.287 56.9112C62.511 56.8535 62.7059 56.781 62.8799 56.6843C62.9175 56.6654 62.9521 56.6425 62.9867 56.6197C63.0403 56.5856 63.0911 56.5477 63.1418 56.5097C63.1735 56.4829 63.2047 56.4595 63.2364 56.4327C63.3081 56.3698 63.3774 56.2996 63.4409 56.2215C63.4619 56.1966 63.4824 56.1752 63.5 56.1498C63.5264 56.1117 63.5523 56.077 63.5748 56.0418C63.6847 55.8831 63.7751 55.7389 63.8494 55.6099C63.8866 55.5454 63.9194 55.4872 63.9482 55.432C63.9585 55.409 63.9717 55.3899 63.982 55.3669C64.0118 55.3048 64.0407 55.2496 64.0617 55.2002C64.0931 55.1278 64.1156 55.0681 64.1289 55.0246C64.106 55.0387 64.0796 55.0523 64.0504 55.0619C63.8506 55.1442 63.519 55.1999 63.2566 55.2099C63.2532 55.2093 63.2498 55.2088 63.2459 55.2118C63.2215 55.2116 63.1938 55.211 63.1656 55.2138C63.1695 55.2109 63.1763 55.2119 63.1802 55.209L61.4294 55.1408C61.4309 55.1551 61.4265 55.1614 61.4226 55.1643Z" fill="url(#paint5_linear_21_1178)"/>
<path d="M63.8727 51.9435C63.6853 52.1572 63.4793 52.4031 63.2553 52.6779C63.2426 52.6935 63.2304 52.7057 63.2211 52.7218C63.0263 52.9624 62.8213 53.226 62.6015 53.5189C62.4121 53.7708 62.2134 54.0388 62.0038 54.3332C61.8212 54.5861 61.6361 54.8562 61.4383 55.1419L63.1884 55.21C63.7227 55.0515 63.9776 54.8758 64.2396 54.6032C64.3094 54.5296 64.3801 54.4491 64.4514 54.3652C64.6686 54.1139 64.8863 53.8347 65.0836 53.5525C65.2761 53.28 65.451 53.0084 65.5874 52.7627C65.6763 52.6043 65.7497 52.4577 65.807 52.3262C65.855 52.2108 65.8951 52.1012 65.9314 51.9946C65.2477 52.0083 64.4113 51.9957 63.8727 51.9435Z" fill="url(#paint6_linear_21_1178)"/>
<path d="M61.8918 57.7618C61.8568 57.7635 61.8223 57.7619 61.7838 57.7632C61.8189 57.7614 61.8539 57.7596 61.8918 57.7618Z" fill="#BE202E"/>
<path opacity="0.35" d="M61.8918 57.7618C61.8568 57.7635 61.8223 57.7619 61.7838 57.7632C61.8189 57.7614 61.8539 57.7596 61.8918 57.7618Z" fill="#BE202E"/>
<path d="M61.8918 57.7618C61.8568 57.7635 61.8223 57.7619 61.7838 57.7632C61.8189 57.7614 61.8539 57.7596 61.8918 57.7618Z" fill="url(#paint7_linear_21_1178)"/>
<path d="M62.2932 56.9131C62.3034 56.9147 62.3141 56.9128 62.3277 56.9148C62.3175 56.9133 62.3068 56.9152 62.2932 56.9131Z" fill="#BE202E"/>
<path opacity="0.35" d="M62.2932 56.9131C62.3034 56.9147 62.3141 56.9128 62.3277 56.9148C62.3175 56.9133 62.3068 56.9152 62.2932 56.9131Z" fill="#BE202E"/>
<path d="M62.2932 56.9131C62.3034 56.9147 62.3141 56.9128 62.3277 56.9148C62.3175 56.9133 62.3068 56.9152 62.2932 56.9131Z" fill="url(#paint8_linear_21_1178)"/>
<path d="M54.0045 48.9324C53.873 49.2446 53.7689 49.9233 53.7207 50.8314L54.7321 51.324C54.7162 50.6741 54.7411 50.0626 54.8066 49.507C54.8105 49.4654 54.8142 49.4412 54.8142 49.4412C54.8133 49.4633 54.8076 49.4848 54.8066 49.507C54.7859 49.6899 54.7422 50.2637 54.7998 51.2997C55.2191 50.9547 55.8228 50.37 56.3003 49.8701C55.7977 48.8329 55.1713 48.6524 55.1713 48.6524C55.1713 48.6524 54.2752 48.2891 54.0045 48.9324Z" fill="url(#paint9_linear_21_1178)"/>
<path d="M57.5112 56.7707C57.4639 56.8229 57.4145 56.8723 57.3651 56.9218C57.3908 56.8984 57.4173 56.8703 57.4409 56.8442C57.4666 56.8208 57.4903 56.7947 57.5112 56.7707Z" fill="#BE202E"/>
<path opacity="0.35" d="M57.5112 56.7707C57.4639 56.8229 57.4145 56.8723 57.3651 56.9218C57.3908 56.8984 57.4173 56.8703 57.4409 56.8442C57.4666 56.8208 57.4903 56.7947 57.5112 56.7707Z" fill="#BE202E"/>
<path d="M57.1404 55.9568C57.1377 55.9588 57.1377 55.9588 57.1404 55.9568C57.1488 55.9506 57.1551 55.9417 57.1634 55.9355C57.1953 55.9032 57.2273 55.871 57.2545 55.8379C57.219 55.8771 57.1787 55.9155 57.1404 55.9568Z" fill="#BE202E"/>
<path opacity="0.35" d="M57.1404 55.9568C57.1377 55.9588 57.1377 55.9588 57.1404 55.9568C57.1488 55.9506 57.1551 55.9417 57.1634 55.9355C57.1953 55.9032 57.2273 55.871 57.2545 55.8379C57.219 55.8771 57.1787 55.9155 57.1404 55.9568Z" fill="#BE202E"/>
<path d="M54.9975 54.3367C54.9512 53.997 54.9089 53.6629 54.8707 53.3344C54.832 52.9934 54.8021 52.6587 54.779 52.3276C54.7772 52.3075 54.7754 52.2873 54.7756 52.27C54.7538 51.9465 54.7382 51.6314 54.7314 51.3226L53.7216 50.8326C53.7195 50.8943 53.7146 50.9581 53.7118 51.0247C53.7014 51.2688 53.6937 51.5282 53.6912 51.8008C53.6884 52.1081 53.6909 52.4287 53.696 52.7645C53.7028 53.0733 53.7149 53.3954 53.7311 53.723C53.7472 54.0034 53.7652 54.2866 53.7874 54.5755C53.7879 54.5879 53.7892 54.5956 53.7898 54.6081L55.1406 55.2968C55.0941 54.9745 55.0448 54.6542 54.9975 54.3367Z" fill="url(#paint10_linear_21_1178)"/>
<path d="M56.9945 62.3987C57.0686 62.6532 57.144 62.9153 57.2263 63.181C57.2283 63.1838 57.2275 63.1887 57.2296 63.1915C57.2408 63.2304 57.25 63.2666 57.2641 63.3034C57.3177 63.4829 57.3695 63.6422 57.4809 64.0066C57.6994 63.9607 57.972 64.0596 58.2566 64.1926C58.0741 63.9711 57.8213 63.8231 57.5191 63.7892C58.3473 63.2315 58.8927 62.5138 58.8172 61.6586C58.8091 61.5829 58.799 61.5045 58.7841 61.4253C58.7707 61.7532 58.636 61.9906 58.2396 62.2498C58.6145 61.5853 58.718 61.1348 58.6745 60.5525C58.6637 60.4144 58.6468 60.2679 58.6218 60.1102C58.5011 60.9774 58.0387 61.5392 57.363 61.8721L56.9529 62.2533C56.9674 62.3027 56.98 62.3493 56.9945 62.3987Z" fill="url(#paint11_linear_21_1178)"/>
<path d="M56.4658 61.2334C56.3801 60.91 56.2951 60.5817 56.2081 60.2506C56.1264 59.9327 56.0475 59.6128 55.9693 59.2881C55.8911 58.9633 55.8158 58.6365 55.7404 58.3096C55.6637 57.9752 55.5918 57.6415 55.5227 57.3057C55.4529 56.9747 55.3886 56.6397 55.3236 56.3095C55.3002 56.1892 55.2788 56.0718 55.2582 55.9495C55.2206 55.7451 55.1858 55.5387 55.1511 55.3323C55.1477 55.3218 55.1472 55.3094 55.1439 55.2989L53.8003 54.6087C53.8022 54.6289 53.806 54.6518 53.8051 54.674C53.8319 54.9809 53.8579 55.2927 53.8935 55.606C53.9284 55.9241 53.9681 56.243 54.0146 56.5654C54.0542 56.8371 54.0965 57.1067 54.1409 57.3791C54.1499 57.4326 54.1609 57.4889 54.17 57.5425C54.2315 57.8796 54.2972 58.2049 54.3688 58.5088C54.4487 58.8537 54.5345 59.1771 54.6212 59.4784C54.6795 59.676 54.7365 59.866 54.795 60.0462C54.8455 60.1979 54.9009 60.3504 54.9542 60.5001C55.0823 60.8524 55.2243 61.1944 55.3773 61.5281L56.7353 62.2205C56.6632 61.9687 56.5966 61.7127 56.5232 61.4532C56.5048 61.3809 56.4863 61.3086 56.4658 61.2334Z" fill="url(#paint12_linear_21_1178)"/>
<path d="M55.4037 61.5737C55.5904 61.9772 55.7966 62.3663 56.0277 62.737C56.0359 62.7482 56.0432 62.7642 56.0514 62.7754C55.6759 62.6234 55.0103 62.6951 55.0151 62.6958C55.702 62.9353 56.3043 63.2288 56.6839 63.6743C56.5326 63.8423 56.2497 63.9702 55.894 64.0745C56.3855 64.1276 56.6597 64.0406 56.7601 63.9964C56.5029 64.2126 56.3587 64.6076 56.232 65.0326C56.5217 64.5556 56.8089 64.2397 57.0883 64.1187C57.4946 65.482 57.9842 66.9599 58.5267 68.5104C58.6189 68.3905 58.6294 68.258 58.591 68.123C58.491 67.8445 57.8459 66.0002 57.1099 63.4964C57.0887 63.4261 57.0703 63.3537 57.047 63.2807C57.0404 63.2598 57.0357 63.2417 57.0291 63.2208C56.9536 62.9585 56.8769 62.6885 56.7989 62.4109C56.7817 62.3462 56.7638 62.2863 56.7467 62.2216L56.7446 62.2188L55.3864 61.5263C55.391 61.5444 55.3963 61.5576 55.4037 61.5737Z" fill="url(#paint13_linear_21_1178)"/>
<path d="M55.3032 55.3293C55.3109 55.3752 55.3194 55.4162 55.3271 55.462C55.3531 55.5975 55.3762 55.7351 55.4042 55.8734C55.4328 56.0242 55.4633 56.1778 55.4932 56.3362C55.5081 56.4154 55.523 56.4946 55.5399 56.5766C55.5887 56.8199 55.6416 57.0687 55.6958 57.3252C55.763 57.6407 55.8363 57.9646 55.915 58.3018C55.9891 58.6209 56.0685 58.9532 56.152 59.2911C56.2329 59.6137 56.3151 59.944 56.4054 60.2854C56.4845 60.5879 56.5697 60.8987 56.6561 61.2172C56.6587 61.2325 56.6661 61.2485 56.6687 61.2638C56.7559 61.5775 56.8464 61.9016 56.941 62.2312C56.9423 62.2389 56.9436 62.2465 56.9476 62.2521L57.3578 61.8708C57.3475 61.8742 57.3391 61.8804 57.326 61.8858C57.8128 61.422 58.2307 60.4935 58.3269 59.6571C58.3713 59.2718 58.3677 58.8618 58.3157 58.4146C58.2783 58.0812 58.2114 57.731 58.1195 57.3521C58.0393 57.0246 57.9401 56.6769 57.8191 56.3109C57.7437 56.4656 57.6368 56.6179 57.5057 56.7666C57.482 56.7927 57.4584 56.8189 57.4347 56.845C57.411 56.8712 57.3853 56.8945 57.3588 56.9227C57.7181 56.3599 57.7615 55.7561 57.6559 55.1294C57.5905 55.3155 57.4621 55.5911 57.2495 55.8389C57.2223 55.8719 57.1903 55.9042 57.1582 55.9365C57.1499 55.9427 57.1436 55.9517 57.1325 55.9599C57.2518 55.7598 57.3399 55.5698 57.3965 55.3775C57.41 55.3374 57.4187 55.2965 57.4274 55.2557C57.4419 55.1934 57.4516 55.1304 57.4612 55.0673C57.4651 55.0257 57.4711 54.9869 57.475 54.9454C57.4823 54.8497 57.4827 54.7505 57.4736 54.6498C57.4712 54.6172 57.4709 54.5874 57.4657 54.5568C57.458 54.511 57.4523 54.4679 57.4438 54.4269C57.4116 54.2358 57.3757 54.069 57.3388 53.9244C57.3204 53.8521 57.3032 53.7874 57.2854 53.7276C57.2767 53.7039 57.2728 53.681 57.2642 53.6573C57.2422 53.5919 57.2243 53.5321 57.2049 53.482C57.1769 53.4082 57.1514 53.3497 57.1306 53.3093C57.1241 53.3356 57.1148 53.3639 57.1007 53.3915C57.0159 53.5919 56.8188 53.8669 56.6391 54.0602C56.6363 54.0623 56.6335 54.0643 56.6328 54.0692C56.6154 54.0864 56.5952 54.1056 56.5771 54.1276C56.5778 54.1228 56.5834 54.1187 56.5841 54.1138L55.2917 55.3077C55.3026 55.3168 55.3039 55.3244 55.3032 55.3293Z" fill="url(#paint14_linear_21_1178)"/>
<path d="M54.8028 51.3012C54.8181 51.5864 54.8427 51.9078 54.8744 52.2624C54.8762 52.2826 54.876 52.2999 54.8806 52.318C54.9094 52.6276 54.9468 52.9608 54.9942 53.3254C55.0346 53.6392 55.0797 53.9711 55.1354 54.3295C55.1814 54.6393 55.2375 54.963 55.2954 55.3068L56.5876 54.1132C56.8573 53.6211 56.9165 53.3151 56.9133 52.935C56.9117 52.8331 56.9061 52.7255 56.8984 52.6152C56.8781 52.2821 56.8389 51.9287 56.7829 51.5877C56.7303 51.2571 56.6659 50.9395 56.592 50.6677C56.5452 50.4918 56.4954 50.3353 56.4446 50.201C56.3985 50.0847 56.3509 49.9782 56.3026 49.8765C55.8258 50.3715 55.2222 50.9562 54.8028 51.3012Z" fill="url(#paint15_linear_21_1178)"/>
<path d="M57.4431 56.8469C57.4194 56.873 57.3937 56.8963 57.3673 56.9245C57.3909 56.8984 57.4146 56.8723 57.4431 56.8469Z" fill="#BE202E"/>
<path opacity="0.35" d="M57.4431 56.8469C57.4194 56.873 57.3937 56.8963 57.3673 56.9245C57.3909 56.8984 57.4146 56.8723 57.4431 56.8469Z" fill="#BE202E"/>
<path d="M57.4431 56.8469C57.4194 56.873 57.3937 56.8963 57.3673 56.9245C57.3909 56.8984 57.4146 56.8723 57.4431 56.8469Z" fill="url(#paint16_linear_21_1178)"/>
<path d="M57.1379 55.9589C57.1462 55.9527 57.1525 55.9438 57.1636 55.9356C57.1553 55.9417 57.149 55.9507 57.1379 55.9589Z" fill="#BE202E"/>
<path opacity="0.35" d="M57.1379 55.9589C57.1462 55.9527 57.1525 55.9438 57.1636 55.9356C57.1553 55.9417 57.149 55.9507 57.1379 55.9589Z" fill="#BE202E"/>
<path d="M57.1379 55.9589C57.1462 55.9527 57.1525 55.9438 57.1636 55.9356C57.1553 55.9417 57.149 55.9507 57.1379 55.9589Z" fill="url(#paint17_linear_21_1178)"/>
<defs>
<linearGradient id="paint0_linear_21_1178" x1="63.8594" y1="51.0264" x2="67.8314" y2="50.5241" gradientUnits="userSpaceOnUse">
<stop stop-color="#F69923"/>
<stop offset="0.3123" stop-color="#F79A23"/>
<stop offset="0.8383" stop-color="#E97826"/>
</linearGradient>
<linearGradient id="paint1_linear_21_1178" x1="53.0029" y1="67.0429" x2="63.3105" y2="51.5022" gradientUnits="userSpaceOnUse">
<stop offset="0.3233" stop-color="#9E2064"/>
<stop offset="0.6302" stop-color="#C92037"/>
<stop offset="0.7514" stop-color="#CD2335"/>
<stop offset="1" stop-color="#E97826"/>
</linearGradient>
<linearGradient id="paint2_linear_21_1178" x1="55.7876" y1="66.1988" x2="61.9276" y2="56.943" gradientUnits="userSpaceOnUse">
<stop stop-color="#282662"/>
<stop offset="0.0954839" stop-color="#662E8D"/>
<stop offset="0.7882" stop-color="#9F2064"/>
<stop offset="0.9487" stop-color="#CD2032"/>
</linearGradient>
<linearGradient id="paint3_linear_21_1178" x1="53.4273" y1="66.0775" x2="63.7355" y2="50.5312" gradientUnits="userSpaceOnUse">
<stop offset="0.3233" stop-color="#9E2064"/>
<stop offset="0.6302" stop-color="#C92037"/>
<stop offset="0.7514" stop-color="#CD2335"/>
<stop offset="1" stop-color="#E97826"/>
</linearGradient>
<linearGradient id="paint4_linear_21_1178" x1="54.379" y1="65.0839" x2="59.796" y2="56.9101" gradientUnits="userSpaceOnUse">
<stop stop-color="#282662"/>
<stop offset="0.0954839" stop-color="#662E8D"/>
<stop offset="0.7882" stop-color="#9F2064"/>
<stop offset="0.9487" stop-color="#CD2032"/>
</linearGradient>
<linearGradient id="paint5_linear_21_1178" x1="55.0359" y1="67.1391" x2="65.3422" y2="51.6019" gradientUnits="userSpaceOnUse">
<stop offset="0.3233" stop-color="#9E2064"/>
<stop offset="0.6302" stop-color="#C92037"/>
<stop offset="0.7514" stop-color="#CD2335"/>
<stop offset="1" stop-color="#E97826"/>
</linearGradient>
<linearGradient id="paint6_linear_21_1178" x1="54.3292" y1="68.0441" x2="64.6328" y2="52.5119" gradientUnits="userSpaceOnUse">
<stop offset="0.3233" stop-color="#9E2064"/>
<stop offset="0.6302" stop-color="#C92037"/>
<stop offset="0.7514" stop-color="#CD2335"/>
<stop offset="1" stop-color="#E97826"/>
</linearGradient>
<linearGradient id="paint7_linear_21_1178" x1="55.5205" y1="67.4246" x2="65.7866" y2="51.9171" gradientUnits="userSpaceOnUse">
<stop offset="0.3233" stop-color="#9E2064"/>
<stop offset="0.6302" stop-color="#C92037"/>
<stop offset="0.7514" stop-color="#CD2335"/>
<stop offset="1" stop-color="#E97826"/>
</linearGradient>
<linearGradient id="paint8_linear_21_1178" x1="55.4674" y1="67.3754" x2="65.7213" y2="51.874" gradientUnits="userSpaceOnUse">
<stop offset="0.3233" stop-color="#9E2064"/>
<stop offset="0.6302" stop-color="#C92037"/>
<stop offset="0.7514" stop-color="#CD2335"/>
<stop offset="1" stop-color="#E97826"/>
</linearGradient>
<linearGradient id="paint9_linear_21_1178" x1="54.1537" y1="50.6606" x2="56.6554" y2="47.5043" gradientUnits="userSpaceOnUse">
<stop stop-color="#F69923"/>
<stop offset="0.3123" stop-color="#F79A23"/>
<stop offset="0.8383" stop-color="#E97826"/>
</linearGradient>
<linearGradient id="paint10_linear_21_1178" x1="57.5712" y1="69.7653" x2="53.8612" y2="51.4325" gradientUnits="userSpaceOnUse">
<stop offset="0.3233" stop-color="#9E2064"/>
<stop offset="0.6302" stop-color="#C92037"/>
<stop offset="0.7514" stop-color="#CD2335"/>
<stop offset="1" stop-color="#E97826"/>
</linearGradient>
<linearGradient id="paint11_linear_21_1178" x1="58.9709" y1="67.1822" x2="56.7608" y2="56.2612" gradientUnits="userSpaceOnUse">
<stop stop-color="#282662"/>
<stop offset="0.0954839" stop-color="#662E8D"/>
<stop offset="0.7882" stop-color="#9F2064"/>
<stop offset="0.9487" stop-color="#CD2032"/>
</linearGradient>
<linearGradient id="paint12_linear_21_1178" x1="57.2054" y1="68.7712" x2="53.4948" y2="50.4352" gradientUnits="userSpaceOnUse">
<stop offset="0.3233" stop-color="#9E2064"/>
<stop offset="0.6302" stop-color="#C92037"/>
<stop offset="0.7514" stop-color="#CD2335"/>
<stop offset="1" stop-color="#E97826"/>
</linearGradient>
<linearGradient id="paint13_linear_21_1178" x1="57.1952" y1="67.3837" x2="55.245" y2="57.746" gradientUnits="userSpaceOnUse">
<stop stop-color="#282662"/>
<stop offset="0.0954839" stop-color="#662E8D"/>
<stop offset="0.7882" stop-color="#9F2064"/>
<stop offset="0.9487" stop-color="#CD2032"/>
</linearGradient>
<linearGradient id="paint14_linear_21_1178" x1="59.0876" y1="68.389" x2="55.3779" y2="50.0586" gradientUnits="userSpaceOnUse">
<stop offset="0.3233" stop-color="#9E2064"/>
<stop offset="0.6302" stop-color="#C92037"/>
<stop offset="0.7514" stop-color="#CD2335"/>
<stop offset="1" stop-color="#E97826"/>
</linearGradient>
<linearGradient id="paint15_linear_21_1178" x1="59.2111" y1="69.5409" x2="55.5022" y2="51.2144" gradientUnits="userSpaceOnUse">
<stop offset="0.3233" stop-color="#9E2064"/>
<stop offset="0.6302" stop-color="#C92037"/>
<stop offset="0.7514" stop-color="#CD2335"/>
<stop offset="1" stop-color="#E97826"/>
</linearGradient>
<linearGradient id="paint16_linear_21_1178" x1="59.6445" y1="68.2617" x2="55.9403" y2="49.9539" gradientUnits="userSpaceOnUse">
<stop offset="0.3233" stop-color="#9E2064"/>
<stop offset="0.6302" stop-color="#C92037"/>
<stop offset="0.7514" stop-color="#CD2335"/>
<stop offset="1" stop-color="#E97826"/>
</linearGradient>
<linearGradient id="paint17_linear_21_1178" x1="59.5785" y1="68.2713" x2="55.8747" y2="49.9669" gradientUnits="userSpaceOnUse">
<stop offset="0.3233" stop-color="#9E2064"/>
<stop offset="0.6302" stop-color="#C92037"/>
<stop offset="0.7514" stop-color="#CD2335"/>
<stop offset="1" stop-color="#E97826"/>
</linearGradient>
</defs>
</svg>
