<svg width="90" height="90" viewBox="0 0 90 90" fill="none" xmlns="http://www.w3.org/2000/svg">
<path fill-rule="evenodd" clip-rule="evenodd" d="M58.2208 24.0679C56.3899 18.367 53.4529 13.3214 49.3143 8.97958C48.2681 7.8813 47.1051 6.87513 46.3753 5.50896C45.914 4.64411 45.4746 3.76731 45.0253 2.89685L44.7398 2.17896L44.6603 2.46161C44.6231 3.88192 43.8187 4.8445 42.8175 5.7438C41.6896 6.75489 40.6406 7.85317 39.5578 8.91419L36.2278 13.294L33.5355 18.2454L31.7348 23.1075L31.6807 23.1827C30.69 26.4375 30.2013 29.7843 29.9615 33.1636C29.8708 34.4341 29.9749 35.7222 30.0459 36.9991C30.1478 38.8244 30.465 40.6181 30.9403 42.385C32.6678 48.8018 36.1743 54.1237 40.9689 58.6462C41.8591 59.4865 42.8217 60.2508 43.7505 61.0495L44.1618 62.4614L44.5443 64.6523L44.7271 66.9396C44.725 67.4036 44.706 67.8698 44.7335 68.3325C44.7412 68.4513 44.8959 68.561 44.9831 68.6749L45.7593 68.9477L46.5672 69.262L46.4287 67.2293L46.4224 65.2268L46.7015 62.1766L46.904 61.5129L47.4841 60.4856C48.1999 59.9104 48.967 59.3873 49.6188 58.7468C50.7979 57.5887 51.975 56.4145 53.0303 55.1454C54.4034 53.5003 55.5762 51.698 56.5242 49.7763C57.1563 48.4875 57.7525 47.1726 58.2454 45.8261C58.68 44.6393 58.9492 43.3912 59.2917 42.1699L59.3817 41.9062C60.0883 38.61 60.2071 35.28 59.9477 31.9289C59.7389 29.2282 59.1039 26.6217 58.2208 24.0679ZM44.2286 59.4175C44.3369 58.8754 44.4712 58.3361 44.5689 57.7919C44.4712 58.3361 44.3376 58.8754 44.2286 59.4175ZM46.6312 59.7916L46.177 58.7967L46.6312 59.7916L47.2985 60.3618L46.6312 59.7916ZM74.8645 72.3965C74.2837 71.2835 73.4315 70.4383 72.3051 69.8836C71.3615 69.4195 70.3469 69.2156 69.3035 69.1861C68.5216 69.1636 67.7369 69.2036 66.9536 69.2135C66.2582 69.2219 65.5621 69.2339 64.8667 69.2275C64.049 69.2191 63.2313 69.1945 62.4135 69.1713C62.2778 69.1671 62.1815 69.1945 62.1182 69.3323C62.0191 69.5468 61.9017 69.7535 61.78 69.9883L61.9164 70.0319C62.3221 70.1036 62.73 70.1648 63.1335 70.2457C63.6525 70.349 63.8859 70.6472 63.9098 71.0845C63.945 71.7075 63.959 72.3318 63.9569 72.9562C63.9464 75.427 63.9288 77.8978 63.9105 80.3679C63.9091 80.531 63.9063 80.7011 63.862 80.8544C63.8107 81.0316 63.7551 81.2608 63.6229 81.348C63.3851 81.5008 63.1181 81.6025 62.8389 81.6469C62.4445 81.7115 62.3784 81.7291 62.2553 82.1172L62.2019 82.3113C62.1428 82.5229 62.1745 82.5644 62.3953 82.5665C63.6623 82.5806 64.9286 82.608 66.195 82.6038C67.3502 82.5996 68.5054 82.6699 69.6564 82.4526C70.7442 82.248 71.7595 81.8894 72.6862 81.2826C73.8885 80.4944 74.7534 79.4411 75.2097 78.0665C75.5782 76.9563 75.6604 75.8236 75.5353 74.6627C75.4572 73.8717 75.2295 73.1026 74.8645 72.3965ZM72.6447 79.1894C71.9669 80.4508 70.9558 81.2932 69.5109 81.5154C68.606 81.6539 67.6996 81.6138 66.8369 81.2714C66.2906 81.0548 66.0874 80.583 66.0705 80.0254C66.055 79.479 66.0473 78.9324 66.0473 78.3858C66.0445 76.4634 66.0445 74.5411 66.0473 72.6194C66.0487 72.014 66.0592 71.4072 66.0691 70.8011C66.0761 70.375 66.1654 70.2323 66.581 70.1979C68.4063 70.0446 70.1479 70.2415 71.5943 71.5261C72.4886 72.3206 72.9977 73.3338 73.2093 74.4975C73.2972 74.9826 73.3239 75.479 73.3788 75.9712C73.3345 77.0948 73.1826 78.1882 72.6447 79.1894ZM87.9651 77.1075C87.6051 76.2314 86.9231 75.6822 86.066 75.3307C85.7735 75.2104 85.4718 75.1113 85.1561 74.9946L85.2665 74.9243C85.6075 74.7056 85.9872 74.5291 86.2811 74.2598C86.9955 73.6052 87.2922 72.7818 87.153 71.8038C87.0208 70.8736 86.5568 70.1908 85.7278 69.7479C84.9754 69.3471 84.164 69.2008 83.3245 69.2015C81.8718 69.2029 80.4185 69.2247 78.9658 69.2275C78.4652 69.2283 77.9646 69.191 77.4639 69.184C77.3669 69.1825 77.2228 69.2072 77.1813 69.2718C77.0667 69.4476 76.9907 69.6501 76.9092 69.8456C76.8621 69.9595 76.9085 70.0221 77.0386 70.039C77.388 70.0868 77.7368 70.1465 78.0869 70.1986C78.5707 70.271 78.8048 70.5227 78.8343 71.01L78.8407 71.299C78.8414 72.8142 78.8463 74.3294 78.84 75.8447C78.8309 77.3578 78.8166 78.871 78.7971 80.384C78.795 80.5746 78.7689 80.7658 78.7415 80.955C78.7 81.2404 78.5475 81.4373 78.255 81.4992L77.4274 81.6623C77.3296 81.682 77.1883 81.6792 77.1482 81.7397C76.9964 81.9668 76.874 82.215 76.8909 82.5145L76.976 82.5377L79.7554 82.6059L80.313 82.6038C81.2749 82.5926 82.2382 82.6115 83.1986 82.5623C84.2386 82.5103 85.2152 82.2016 86.118 81.6708C87.0792 81.1047 87.8189 80.3587 88.0818 79.2365C88.2506 78.5201 88.2513 77.7993 87.9651 77.1075ZM80.9036 70.6521C80.9079 70.3476 81.0421 70.2154 81.3445 70.2077C82.0891 70.1873 82.8288 70.1915 83.5474 70.4482C84.4769 70.7801 85.0486 71.5816 85.038 72.5611C85.0331 72.9372 85.0387 73.3099 84.9002 73.6713C84.6267 74.3829 84.1021 74.7583 83.3582 74.8315C82.9701 74.8708 82.5785 74.875 82.2325 74.8933L81.078 74.8427C80.9247 74.8371 80.8579 74.7696 80.8586 74.6121L80.9036 70.6521ZM85.6891 80.14C85.3171 80.9493 84.6393 81.3747 83.7907 81.5224C83.1143 81.6384 82.4208 81.608 81.7572 81.4331C81.2608 81.3058 81.0583 80.9072 80.9592 80.4649C80.8924 80.1689 80.9036 79.8166 80.898 79.5086C80.8889 79.0333 80.8959 78.0468 80.8959 78.0468H80.8861C80.8861 77.3437 80.8882 76.7348 80.8839 76.0605C80.8832 75.915 80.9078 75.8426 81.0857 75.8482C81.7171 75.8672 82.3507 75.8777 82.9821 75.9023C83.5467 75.9241 84.0754 76.0915 84.5725 76.3593C85.3291 76.7672 85.7847 77.3915 85.9099 78.2494C86.0055 78.8997 85.9647 79.5396 85.6891 80.14ZM16.3701 80.898L16.3835 77.0751C16.3856 76.5 16.3125 75.9361 16.124 75.3904C15.6044 73.8879 14.1714 73.2037 12.6794 73.743C12.0009 73.9884 11.3927 74.3604 10.8119 74.7822C10.4737 75.0283 10.4737 75.0283 10.229 74.6775C9.53644 73.6847 8.54714 73.345 7.39542 73.7114C6.65081 73.9476 5.99972 74.3519 5.38308 74.8216C5.32542 74.8652 5.2094 74.9137 5.17495 74.8877C5.1173 74.8448 5.07722 74.7429 5.07862 74.6662L5.12081 73.987C5.12433 73.8443 5.0969 73.7008 5.08284 73.5511C4.8044 73.6474 4.58222 73.7437 4.34948 73.8C3.63019 73.9758 2.90597 74.1375 2.18245 74.3027C2.00737 74.3428 1.82245 74.3955 1.80558 74.5966C1.788 74.7942 1.97855 74.8272 2.1262 74.8863C2.43698 75.0115 2.74565 75.1443 3.05292 75.2794C3.31097 75.3933 3.4073 75.5993 3.40589 75.8763C3.40097 77.0611 3.4087 78.2444 3.40167 79.4292C3.39886 79.9108 3.37636 80.3918 3.35456 80.8734C3.33487 81.3002 3.18933 81.4788 2.77589 81.5864C2.55651 81.644 2.33362 81.6827 2.11284 81.7347C2.06433 81.746 1.98136 81.7769 1.98065 81.8008C1.97151 82.0097 1.96026 82.2234 1.99542 82.4266C2.00245 82.4632 2.22323 82.4632 2.34558 82.4772L2.42784 82.4723C3.28003 82.4597 4.13222 82.4463 4.98511 82.4372C5.43722 82.4322 5.88862 82.4365 6.37941 82.4365L6.43214 81.7544C6.15089 81.7031 5.89987 81.6644 5.65237 81.6103C5.26636 81.5259 5.10183 81.3213 5.09198 80.9318L5.08495 80.3742C5.08073 78.9279 5.07511 77.4822 5.07511 76.0359C5.07511 75.8257 5.1623 75.659 5.34722 75.5332C5.73886 75.2688 6.1523 75.0586 6.61003 74.9411C7.57472 74.6943 8.41144 75.0375 8.78269 75.858C8.90011 76.1168 8.99222 76.4029 9.01823 76.6842C9.15464 78.134 9.09558 79.5853 9.01331 81.0351C8.99573 81.348 8.84878 81.5055 8.54011 81.5822L7.81448 81.7354C7.75612 81.7502 7.67105 81.7108 7.66683 81.7593C7.65066 81.9597 7.6598 82.267 7.6598 82.267H7.83277L10.042 82.3394C10.6474 82.338 11.2535 82.4111 11.8582 82.4266C11.9664 82.4287 12.0628 82.4449 12.0691 82.3197C12.076 82.1254 12.0734 81.9309 12.0614 81.7368L11.946 81.7165L11.3238 81.5765C10.904 81.4774 10.7592 81.3178 10.7578 80.8931C10.7528 79.8461 10.7669 78.7999 10.7578 77.7536C10.7524 77.1552 10.7301 76.5571 10.691 75.96C10.6804 75.8011 10.705 75.697 10.8316 75.6077C11.1984 75.3395 11.6111 75.1406 12.0494 75.0206C13.41 74.662 14.5237 75.408 14.594 76.8108C14.6629 78.1636 14.6341 79.5213 14.6235 80.8769C14.62 81.3487 14.4639 81.4915 13.9992 81.618L13.8389 81.6595C13.3628 81.7734 13.3671 81.7734 13.3952 82.279C13.4043 82.4372 13.4479 82.4779 13.6167 82.4737C14.5863 82.4519 15.5559 82.4463 16.5255 82.4379C16.9221 82.4343 17.3186 82.4379 17.7503 82.4379L17.8382 81.7797C17.4592 81.6792 17.1098 81.6047 16.7723 81.4943C16.4742 81.393 16.3687 81.213 16.3701 80.898ZM49.7608 75.1036C50.1602 74.733 50.163 74.2436 50.0512 73.7001C49.7348 74.0313 49.3804 74.1839 48.9761 74.2127C48.434 74.2514 47.9017 74.2043 47.3969 73.9884C46.0314 73.402 44.6871 73.4435 43.3469 74.0868C42.2198 74.6268 41.5265 75.4685 41.4569 76.7447C41.4126 77.5624 41.5659 78.3365 42.1115 78.9869C42.4385 79.3765 42.8582 79.6289 43.3314 79.8033C43.5353 79.8785 43.5508 79.9755 43.38 80.1056C43.2538 80.2009 43.1231 80.2901 42.9883 80.3728C42.7027 80.5523 42.4154 80.729 42.1263 80.9029C41.9568 81.0056 41.8992 81.1364 41.9547 81.3368C42.1171 81.926 42.5355 82.2663 43.0586 82.5145L43.2492 82.6474L43.0825 82.814C42.57 83.2296 42.037 83.6219 41.5462 84.0628C41.1342 84.4333 41.0013 84.9297 41.1257 85.4775C41.3768 86.5708 42.1017 87.2472 43.1303 87.558C44.9282 88.1022 46.6164 87.7901 48.1556 86.7248C49.0682 86.0927 49.7228 85.2701 49.9218 84.138C50.1447 82.8661 49.4381 81.7622 48.1732 81.5343C47.3364 81.3825 46.48 81.3389 45.6335 81.2418C45.2383 81.1968 44.8375 81.1701 44.4529 81.0794C44.126 81.0021 43.9636 80.7356 43.9938 80.4754C44.024 80.2195 44.2961 79.9811 44.6076 79.9565C45.2348 79.9059 45.8493 79.8082 46.4273 79.5438C47.9587 78.8435 48.6696 77.6172 48.4917 75.9663C48.4685 75.7441 48.4178 75.5247 48.3721 75.266C48.8622 75.3483 49.3635 75.4727 49.7608 75.1036ZM45.1139 82.8499C45.7368 82.8682 46.4456 82.9068 47.1304 83.1072C47.733 83.283 48.2287 83.591 48.375 84.2639C48.5514 85.0767 48.1605 85.8853 47.3737 86.3198C46.6368 86.7262 45.8367 86.76 45.0253 86.6763C44.3306 86.6046 43.7055 86.3641 43.2049 85.8508C42.5453 85.1751 42.5418 84.24 43.2021 83.5664C43.792 82.9645 44.1077 82.84 45.1139 82.8499ZM46.6727 77.9547C46.3099 79.1156 45.2538 79.2759 44.4262 78.9047C43.721 78.589 43.4137 77.9674 43.2527 77.2579C43.1901 76.9851 43.1753 76.7018 43.1388 76.4226C43.1535 76.0226 43.2196 75.6386 43.3919 75.2786C43.92 74.1698 45.2172 74.2359 45.9351 74.7379C46.2431 74.9531 46.4575 75.2456 46.5918 75.5922C46.8908 76.3468 46.9194 77.1815 46.6727 77.9547ZM40.0844 81.6553C39.8332 81.6169 39.5849 81.5614 39.3412 81.4893C38.9137 81.3586 38.8617 81.2784 38.8568 80.8263C38.8441 79.5663 38.8357 78.3063 38.8216 77.047C38.8146 76.4803 38.7471 75.9213 38.5734 75.3799C38.1164 73.9526 36.7164 73.1861 35.3158 73.6073C34.5396 73.8415 33.873 74.2767 33.2521 74.7879L33.0257 74.9615L33.0264 74.7288C33.0412 74.4609 33.07 74.193 33.0679 73.9251C33.0665 73.7852 33.0131 73.6446 32.9871 73.5215C32.4576 73.6811 31.983 73.8415 31.4985 73.9638C31.0127 74.0861 30.517 74.1691 30.0255 74.269C29.7815 74.3182 29.6022 74.4658 29.6064 74.6339C29.6128 74.8708 29.8089 74.9165 29.9805 74.9875C30.2913 75.1148 30.6014 75.2435 30.9086 75.3799C31.128 75.4776 31.2173 75.659 31.2152 75.8946C31.1997 77.5322 31.1899 79.1704 31.166 80.8087C31.1589 81.3262 31.0282 81.4626 30.5191 81.5765L30.2969 81.6208C29.8258 81.7017 29.8125 81.7207 29.8448 82.2178L29.8476 82.3C29.842 82.4913 29.9257 82.5532 30.1225 82.5511C31.3741 82.5363 32.6264 82.5293 33.8779 82.5342C34.4144 82.5363 34.4721 82.4941 34.4608 81.9429L34.4355 81.7059C34.1289 81.6546 33.8357 81.6173 33.5489 81.554C33.2486 81.4872 33.1411 81.3642 33.1129 81.059C33.0869 80.7799 33.0785 80.4965 33.0757 80.2153C33.0616 78.9279 33.0503 77.6404 33.044 76.3537C33.0426 76.0296 33.1024 75.7286 33.4005 75.5198C33.8393 75.2063 34.3566 75.0208 34.8946 74.984C36.0112 74.9074 36.8599 75.569 36.9203 76.6821C36.9949 78.0553 36.9724 79.4334 36.99 80.8094C36.9914 80.9121 36.9731 81.0154 36.959 81.1174C36.9323 81.3185 36.8339 81.4697 36.63 81.5217C36.431 81.5737 36.2292 81.6201 36.026 81.6511C35.7229 81.6961 35.7166 81.694 35.6934 81.9998L35.7011 82.2058C35.737 82.5616 35.7377 82.5511 36.0977 82.5475C37.3085 82.5377 38.5185 82.5314 39.7286 82.5328C40.2349 82.5342 40.2707 82.5103 40.275 81.9886L40.2735 81.8648C40.2813 81.7312 40.2215 81.6771 40.0844 81.6553ZM56.996 73.6938C55.7268 73.3837 54.5231 73.6143 53.3798 74.2057C52.2689 74.7801 51.5264 75.6682 51.2437 76.8944C50.9582 78.134 51.0946 79.3434 51.6424 80.4944C51.9989 81.2419 52.5473 81.8198 53.294 82.1953C55.042 83.0756 57.1802 82.6762 58.5513 81.4985C59.6334 80.5697 60.0307 79.3329 60.0546 77.8022C60.0398 77.6489 60.025 77.3536 59.9842 77.0611C59.7543 75.3947 58.6005 74.0861 56.996 73.6938ZM57.9571 80.1309C57.6203 81.457 56.4735 82.0462 55.1798 81.5906C54.5196 81.3586 54.026 80.9149 53.6941 80.3151C52.9305 78.937 52.7836 77.4717 53.2181 75.9684C53.5078 74.9672 54.3318 74.4194 55.312 74.4883C56.1881 74.5495 56.8617 74.97 57.356 75.6829C57.877 76.4353 58.0781 77.291 58.1315 78.1896C58.1407 78.3337 58.1329 78.4779 58.1329 78.6227L58.1948 78.6297C58.1175 79.1311 58.0809 79.6422 57.9571 80.1309ZM25.0762 73.672C23.741 73.3668 22.4901 73.6685 21.3314 74.347C20.3294 74.9334 19.6818 75.8095 19.4336 76.9542C19.2009 78.0236 19.2958 79.0748 19.6748 80.0993C19.9054 80.7236 20.2549 81.2728 20.7675 81.701C21.8467 82.6017 23.1082 82.8295 24.4504 82.5785C25.5867 82.3654 26.5851 81.8606 27.3107 80.9163C27.99 80.0332 28.2487 79.0193 28.2754 77.9203C28.2353 77.5722 28.2255 77.2179 28.1517 76.8783C27.7846 75.183 26.7932 74.0636 25.0762 73.672ZM26.1653 80.1267C25.8398 81.4458 24.6747 82.0497 23.3901 81.5941C22.5653 81.3009 22.0282 80.6969 21.6885 79.9228C21.1443 78.679 21.0332 77.3845 21.3855 76.0725C21.6555 75.0691 22.469 74.3301 23.7143 74.5073C24.4785 74.6156 25.0748 75.0058 25.5192 75.6267C26.1196 76.4641 26.3172 77.4232 26.3446 78.4307V78.6368L26.3953 78.6445C26.3214 79.1395 26.2849 79.6429 26.1653 80.1267Z" fill="#4FAA41"/>
</svg>
