<svg width="115" height="116" viewBox="0 0 115 116" fill="none" xmlns="http://www.w3.org/2000/svg">
<path d="M1.79777 81.7772H5.48855V67.2019L11.2026 79.9085C11.8764 81.4466 12.7991 81.9902 14.6095 81.9902C16.4198 81.9902 17.3075 81.4466 17.9813 79.9085L23.6954 67.2019V81.7772H27.3862V67.2261C27.3862 65.8066 26.8184 65.1193 25.6468 64.7653C22.8428 63.8902 20.9614 64.6476 20.1097 66.5406L14.5026 79.081L9.07332 66.5397C8.25664 64.6476 6.34027 63.8902 3.53625 64.7644C2.36469 65.1193 1.79688 65.8057 1.79688 67.2252V81.7772H1.79777ZM30.4561 69.9125H34.146V77.9427C34.1119 78.3784 34.2862 79.4027 36.3077 79.435C37.3391 79.4512 44.2696 79.435 44.3343 79.435V69.8729H48.0332C48.0502 69.8729 48.0296 82.9129 48.0296 82.9668C48.0493 86.1832 44.0396 86.8813 42.1906 86.9352H30.5361V84.4519C30.5559 84.4519 42.1825 84.4546 42.2113 84.451C44.5877 84.2003 44.3064 83.0198 44.3055 82.6227V81.6541H36.4613C32.8118 81.6209 30.4867 80.028 30.457 78.1952C30.4552 78.0272 30.537 69.9933 30.4561 69.9125ZM50.8785 81.7772H61.4909C62.7334 81.7772 63.9409 81.5176 64.8986 81.0684C66.4952 80.3352 67.2759 79.3416 67.2759 78.0388V75.3417C67.2759 74.2771 66.3891 73.2825 64.6498 72.6213C63.7271 72.2655 62.5905 72.0777 61.49 72.0777H57.0175C55.527 72.0777 54.8173 71.6285 54.6403 70.6348C54.6052 70.5162 54.6052 70.4219 54.6052 70.3033V68.6232C54.6052 68.5289 54.6052 68.4336 54.6403 68.3159C54.8173 67.5586 55.2081 67.3456 56.5216 67.227L56.8765 67.2037H67.4179V64.7438H57.0544C55.5639 64.7438 54.7831 64.8381 54.0734 65.051C51.8731 65.7374 50.9136 66.8254 50.9136 68.7184V70.8711C50.9136 72.5278 52.7958 73.9474 55.9538 74.2789C56.3096 74.3013 56.6636 74.3265 57.0184 74.3265H60.8521C60.994 74.3265 61.136 74.3265 61.2429 74.349C62.4145 74.4433 62.9104 74.6571 63.2662 75.0821C63.3573 75.1663 63.4297 75.2688 63.4785 75.3829C63.5272 75.497 63.5513 75.6201 63.5492 75.7442V77.8978C63.5492 78.1574 63.3722 78.489 63.0173 78.7729C62.6984 79.0568 62.1656 79.2463 61.4558 79.294L61.065 79.3173H50.8785V81.7772ZM90.3029 77.4953C90.3029 80.0262 92.1842 81.4457 95.981 81.7305C96.3359 81.7539 96.6907 81.7772 97.0456 81.7772H106.664V79.3173H96.9755C94.8103 79.3173 93.9945 78.7729 93.9945 77.471V64.742H90.3037V77.4953H90.3029ZM69.6316 77.6229V68.8496C69.6316 66.6215 71.1967 65.2693 74.2909 64.8426C74.6206 64.7953 74.9533 64.7716 75.2864 64.7716H82.2933C82.6491 64.7716 82.9689 64.795 83.3238 64.8426C86.418 65.2693 87.984 66.6206 87.984 68.8496V77.6229C87.984 79.4323 87.3191 80.399 85.7873 81.0297L89.4242 84.3117H85.1377L82.1963 81.6559L79.235 81.8437H75.2864C74.5528 81.839 73.8233 81.7354 73.1175 81.5356C70.7699 80.8959 69.6316 79.6623 69.6316 77.6229ZM73.6162 77.4099C73.6162 77.5285 73.6512 77.648 73.6871 77.79C73.9001 78.8097 74.8614 79.3784 76.3187 79.3784H79.6716L76.5918 76.5977H80.8782L83.5637 79.0235C84.0596 78.7585 84.3848 78.356 84.4989 77.8376C84.534 77.719 84.534 77.6004 84.534 77.4818V69.0652C84.534 68.9709 84.534 68.8514 84.4989 68.7328C84.2851 67.7841 83.3247 67.2396 81.9025 67.2396H76.3178C74.6826 67.2396 73.6153 67.9512 73.6153 69.0652V77.4099H73.6162ZM109.911 60.6586C107.643 60.5966 105.91 60.8077 104.427 61.4321C104.006 61.61 103.335 61.6145 103.266 62.1419C103.497 62.3854 103.533 62.7474 103.717 63.0457C104.071 63.618 104.669 64.3853 105.202 64.7869C105.783 65.2262 106.383 65.697 107.008 66.0779C108.118 66.7554 109.358 67.1417 110.428 67.8191C111.058 68.2198 111.683 68.7229 112.298 69.1749C112.603 69.3968 112.806 69.7445 113.202 69.8837V69.8199C112.995 69.5558 112.941 69.1928 112.75 68.9161L111.911 68.077C111.091 66.9881 110.051 66.033 108.943 65.2388C108.06 64.6054 106.086 63.7492 105.717 62.7223L105.653 62.6585C106.278 62.5875 107.011 62.3611 107.588 62.2066C108.558 61.946 109.425 62.0134 110.427 61.7547L111.782 61.3665V61.1096C111.276 60.5903 110.914 59.9021 110.362 59.4322C108.918 58.2022 107.341 56.9732 105.717 55.9472C104.817 55.3793 103.704 55.0101 102.749 54.5285C102.429 54.3659 101.865 54.2824 101.652 54.0119C101.15 53.3731 100.877 52.5636 100.49 51.8188C99.6632 50.2098 98.8887 48.5744 98.1678 46.9152C97.679 45.7966 97.3592 44.6933 96.7491 43.6898C93.8193 38.8733 90.6658 35.9659 85.781 33.1089C84.7415 32.5006 83.49 32.2616 82.1684 31.9481L80.0391 31.8187C79.6069 31.6381 79.1559 31.1081 78.7489 30.8511C77.13 29.8287 72.9792 27.605 71.7807 30.5295C71.0242 32.3749 72.9127 34.1753 73.5874 35.1106C74.0609 35.7665 74.6682 36.5014 75.007 37.239C75.2298 37.7241 75.2675 38.2102 75.4589 38.7232C75.9269 39.9864 76.3357 41.3619 76.9422 42.529C77.2486 43.1202 77.5873 43.7428 77.9745 44.2711C78.2117 44.5945 78.6196 44.7383 78.6834 45.2387C78.2854 45.7957 78.262 46.6618 78.0383 47.3671C77.0302 50.5466 77.4103 54.4989 78.8774 56.8519C79.3275 57.5751 80.3877 59.124 81.845 58.5293C83.1198 58.01 82.8359 56.4009 83.2007 54.9804C83.2834 54.6597 83.2321 54.4225 83.3939 54.2069V54.2716L84.5555 56.594C85.4154 57.9785 86.94 59.4241 88.2328 60.4007C88.9031 60.9065 89.4314 61.7825 90.2975 62.0781V62.0125H90.2337C90.0648 61.7511 89.8033 61.6433 89.5877 61.4321C89.0828 60.9371 88.5213 60.3225 88.1044 59.7547C86.9283 58.1591 85.8897 56.4116 84.9428 54.5932C84.4909 53.7253 84.0982 52.7676 83.7173 51.8835C83.57 51.543 83.5718 51.0273 83.2663 50.8521C82.8476 51.499 82.234 52.0228 81.9105 52.7874C81.3948 54.0092 81.3284 55.4997 81.137 57.045L81.0076 57.1088C80.1083 56.8923 79.7929 55.9669 79.4587 55.1736C78.6142 53.1674 78.457 49.9357 79.2009 47.6258C79.3931 47.0275 80.2619 45.1452 79.9097 44.5927C79.7417 44.042 79.1874 43.7239 78.8783 43.3016C78.4728 42.7366 78.1269 42.1311 77.846 41.4949C77.1542 39.9307 76.8317 38.1743 76.1048 36.5921C75.7562 35.8356 75.1687 35.0711 74.6853 34.399C74.1507 33.6533 73.5515 33.1053 73.1364 32.205C72.9891 31.8852 72.7887 31.3722 73.007 31.0434C73.0762 30.8215 73.1759 30.7289 73.3952 30.6561C73.7689 30.3677 74.8111 30.7523 75.201 30.914C76.236 31.3443 77.0994 31.7531 77.9763 32.3335C78.3968 32.6129 78.8217 33.152 79.3311 33.3011H79.9115C80.8198 33.5096 81.8378 33.3649 82.6859 33.6228C84.1863 34.0792 85.5303 34.7881 86.7504 35.5589C90.4691 37.9074 93.5085 41.2496 95.5893 45.2369C95.9235 45.8793 96.069 46.4911 96.3628 47.1721C96.9576 48.5449 97.7069 49.9582 98.298 51.3013C98.8883 52.6409 99.4642 53.9931 100.299 55.108C100.737 55.6938 102.432 56.0083 103.202 56.3335C103.742 56.5617 104.626 56.7998 105.137 57.107C106.114 57.6964 107.061 58.3981 107.976 59.0432C108.433 59.3684 109.841 60.0755 109.911 60.6586ZM81.0723 36.0782C80.6812 36.0718 80.2908 36.1153 79.9106 36.2076V36.2714H79.9753C80.2008 36.7359 80.5988 37.0342 80.8782 37.4331L81.5242 38.7879L81.588 38.7241C81.9878 38.4429 82.1702 37.9928 82.1684 37.3046C82.0076 37.1357 81.9842 36.9245 81.8459 36.7242C81.6626 36.4547 81.305 36.3037 81.0723 36.0782Z" fill="#00618A"/>
</svg>
