<svg width="90" height="90" viewBox="0 0 90 90" fill="none" xmlns="http://www.w3.org/2000/svg">
<path d="M29.1996 57.0327H62.2767C69.6948 56.84 76.7446 53.7514 81.9233 48.4254C87.102 43.0993 90 35.9571 90 28.5211C90 21.085 87.102 13.9428 81.9233 8.61694C76.7446 3.291 69.6948 0.202477 62.2767 0.00959534H29.1996C25.4012 -0.0891615 21.6214 0.575243 18.0833 1.9637C14.5452 3.35212 11.3203 5.43647 8.59889 8.09376C5.87745 10.7511 3.7145 13.9276 2.23769 17.4359C0.760868 20.9444 0 24.7135 0 28.5211C0 32.3287 0.760868 36.0982 2.23769 39.6065C3.7145 43.1149 5.87745 46.2911 8.59889 48.9484C11.3203 51.6057 14.5452 53.6903 18.0833 55.0784C21.6214 56.4669 25.4012 57.1315 29.1996 57.0327ZM61.5297 46.9946H29.9275C25.1461 46.8401 20.6122 44.828 17.2845 41.384C13.9568 37.9401 12.0962 33.3343 12.0962 28.5403C12.0962 23.7464 13.9568 19.1406 17.2845 15.6966C20.6122 12.2526 25.1461 10.2406 29.9275 10.086H61.5297C63.9982 10.0063 66.4572 10.4246 68.7612 11.316C71.0652 12.2076 73.1667 13.5541 74.9409 15.2756C76.7148 16.9971 78.1257 19.0585 79.0891 21.3371C80.0525 23.616 80.5492 26.0655 80.5492 28.5403C80.5492 31.0152 80.0525 33.4646 79.0891 35.7436C78.1257 38.0221 76.7148 40.0837 74.9409 41.8051C73.1667 43.5264 71.0652 44.8731 68.7612 45.7648C66.4572 46.656 63.9982 47.0746 61.5297 46.9946Z" fill="#C74634"/>
<path d="M20.6393 80.2671C19.8633 80.2671 19.1553 80.0871 18.5153 79.7271C17.8753 79.3591 17.3673 78.8511 16.9913 78.2031C16.6233 77.5471 16.4393 76.8111 16.4393 75.9951C16.4393 75.1791 16.6233 74.4471 16.9913 73.7991C17.3673 73.1431 17.8753 72.6351 18.5153 72.2751C19.1553 71.9071 19.8633 71.7231 20.6393 71.7231C21.4233 71.7231 22.1353 71.9071 22.7753 72.2751C23.4153 72.6351 23.9193 73.1391 24.2873 73.7871C24.6553 74.4351 24.8393 75.1711 24.8393 75.9951C24.8393 76.8191 24.6553 77.5551 24.2873 78.2031C23.9193 78.8511 23.4153 79.3591 22.7753 79.7271C22.1353 80.0871 21.4233 80.2671 20.6393 80.2671ZM20.6393 79.3191C21.2233 79.3191 21.7473 79.1831 22.2113 78.9111C22.6833 78.6391 23.0513 78.2511 23.3153 77.7471C23.5873 77.2431 23.7233 76.6591 23.7233 75.9951C23.7233 75.3231 23.5873 74.7391 23.3153 74.2431C23.0513 73.7391 22.6873 73.3511 22.2233 73.0791C21.7593 72.8071 21.2313 72.6711 20.6393 72.6711C20.0473 72.6711 19.5193 72.8071 19.0553 73.0791C18.5913 73.3511 18.2233 73.7391 17.9513 74.2431C17.6873 74.7391 17.5553 75.3231 17.5553 75.9951C17.5553 76.6591 17.6873 77.2431 17.9513 77.7471C18.2233 78.2511 18.5913 78.6391 19.0553 78.9111C19.5273 79.1831 20.0553 79.3191 20.6393 79.3191ZM27.3729 74.6751C27.5649 74.2991 27.8369 74.0071 28.1889 73.7991C28.5489 73.5911 28.9849 73.4871 29.4969 73.4871V74.6151H29.2089C27.9849 74.6151 27.3729 75.2791 27.3729 76.6071V80.1831H26.2809V73.6071H27.3729V74.6751ZM30.3494 76.8711C30.3494 76.1991 30.4854 75.6111 30.7574 75.1071C31.0294 74.5951 31.4014 74.1991 31.8734 73.9191C32.3534 73.6391 32.8854 73.4991 33.4694 73.4991C34.0454 73.4991 34.5454 73.6231 34.9694 73.8711C35.3934 74.1191 35.7094 74.4311 35.9174 74.8071V73.6071H37.0214V80.1831H35.9174V78.9591C35.7014 79.3431 35.3774 79.6631 34.9454 79.9191C34.5214 80.1671 34.0254 80.2911 33.4574 80.2911C32.8734 80.2911 32.3454 80.1471 31.8734 79.8591C31.4014 79.5711 31.0294 79.1671 30.7574 78.6471C30.4854 78.1271 30.3494 77.5351 30.3494 76.8711ZM35.9174 76.8831C35.9174 76.3871 35.8174 75.9551 35.6174 75.5871C35.4174 75.2191 35.1454 74.9391 34.8014 74.7471C34.4654 74.5471 34.0934 74.4471 33.6854 74.4471C33.2774 74.4471 32.9054 74.5431 32.5694 74.7351C32.2334 74.9271 31.9654 75.2071 31.7654 75.5751C31.5654 75.9431 31.4654 76.3751 31.4654 76.8711C31.4654 77.3751 31.5654 77.8151 31.7654 78.1911C31.9654 78.5591 32.2334 78.8431 32.5694 79.0431C32.9054 79.2351 33.2774 79.3311 33.6854 79.3311C34.0934 79.3311 34.4654 79.2351 34.8014 79.0431C35.1454 78.8431 35.4174 78.5591 35.6174 78.1911C35.8174 77.8151 35.9174 77.3791 35.9174 76.8831ZM38.4588 76.8831C38.4588 76.2031 38.5948 75.6111 38.8668 75.1071C39.1388 74.5951 39.5148 74.1991 39.9948 73.9191C40.4828 73.6391 41.0388 73.4991 41.6628 73.4991C42.4708 73.4991 43.1348 73.6951 43.6548 74.0871C44.1828 74.4791 44.5308 75.0231 44.6988 75.7191H43.5228C43.4108 75.3191 43.1908 75.0031 42.8628 74.7711C42.5428 74.5391 42.1428 74.4231 41.6628 74.4231C41.0388 74.4231 40.5348 74.6391 40.1508 75.0711C39.7668 75.4951 39.5748 76.0991 39.5748 76.8831C39.5748 77.6751 39.7668 78.2871 40.1508 78.7191C40.5348 79.1511 41.0388 79.3671 41.6628 79.3671C42.1428 79.3671 42.5428 79.2551 42.8628 79.0311C43.1828 78.8071 43.4028 78.4871 43.5228 78.0711H44.6988C44.5228 78.7431 44.1708 79.2831 43.6428 79.6911C43.1148 80.0911 42.4548 80.2911 41.6628 80.2911C41.0388 80.2911 40.4828 80.1511 39.9948 79.8711C39.5148 79.5911 39.1388 79.1951 38.8668 78.6831C38.5948 78.1711 38.4588 77.5711 38.4588 76.8831ZM47.2479 71.3031V80.1831H46.1559V71.3031H47.2479ZM55.109 76.6431C55.109 76.8511 55.097 77.0711 55.073 77.3031H49.817C49.857 77.9511 50.077 78.4591 50.477 78.8271C50.885 79.1871 51.377 79.3671 51.953 79.3671C52.425 79.3671 52.817 79.2591 53.129 79.0431C53.449 78.8191 53.673 78.5231 53.801 78.1551H54.977C54.801 78.7871 54.449 79.3031 53.921 79.7031C53.393 80.0951 52.737 80.2911 51.953 80.2911C51.329 80.2911 50.769 80.1511 50.273 79.8711C49.785 79.5911 49.401 79.1951 49.121 78.6831C48.841 78.1631 48.701 77.5631 48.701 76.8831C48.701 76.2031 48.837 75.6071 49.109 75.0951C49.381 74.5831 49.761 74.1911 50.249 73.9191C50.745 73.6391 51.313 73.4991 51.953 73.4991C52.577 73.4991 53.129 73.6351 53.609 73.9071C54.089 74.1791 54.457 74.5551 54.713 75.0351C54.977 75.5071 55.109 76.0431 55.109 76.6431ZM53.981 76.4151C53.981 75.9991 53.889 75.6431 53.705 75.3471C53.521 75.0431 53.269 74.8151 52.949 74.6631C52.637 74.5031 52.289 74.4231 51.905 74.4231C51.353 74.4231 50.881 74.5991 50.489 74.9511C50.105 75.3031 49.885 75.7911 49.829 76.4151H53.981ZM62.4016 80.2671C61.8496 80.2671 61.3536 80.1711 60.9136 79.9791C60.4816 79.7791 60.1416 79.5071 59.8936 79.1631C59.6456 78.8111 59.5176 78.4071 59.5096 77.9511H60.6736C60.7136 78.3431 60.8736 78.6751 61.1536 78.9471C61.4416 79.2111 61.8576 79.3431 62.4016 79.3431C62.9216 79.3431 63.3296 79.2151 63.6256 78.9591C63.9296 78.6951 64.0816 78.3591 64.0816 77.9511C64.0816 77.6311 63.9936 77.3711 63.8176 77.1711C63.6416 76.9711 63.4216 76.8191 63.1576 76.7151C62.8936 76.6111 62.5376 76.4991 62.0896 76.3791C61.5376 76.2351 61.0936 76.0911 60.7576 75.9471C60.4296 75.8031 60.1456 75.5791 59.9056 75.2751C59.6736 74.9631 59.5576 74.5471 59.5576 74.0271C59.5576 73.5711 59.6736 73.1671 59.9056 72.8151C60.1376 72.4631 60.4616 72.1911 60.8776 71.9991C61.3016 71.8071 61.7856 71.7111 62.3296 71.7111C63.1136 71.7111 63.7536 71.9071 64.2496 72.2991C64.7536 72.6911 65.0376 73.2111 65.1016 73.8591H63.9016C63.8616 73.5391 63.6936 73.2591 63.3976 73.0191C63.1016 72.7711 62.7096 72.6471 62.2216 72.6471C61.7656 72.6471 61.3936 72.7671 61.1056 73.0071C60.8176 73.2391 60.6736 73.5671 60.6736 73.9911C60.6736 74.2951 60.7576 74.5431 60.9256 74.7351C61.1016 74.9271 61.3136 75.0751 61.5616 75.1791C61.8176 75.2751 62.1736 75.3871 62.6296 75.5151C63.1816 75.6671 63.6256 75.8191 63.9616 75.9711C64.2976 76.1151 64.5856 76.3431 64.8256 76.6551C65.0656 76.9591 65.1856 77.3751 65.1856 77.9031C65.1856 78.3111 65.0776 78.6951 64.8616 79.0551C64.6456 79.4151 64.3256 79.7071 63.9016 79.9311C63.4776 80.1551 62.9776 80.2671 62.4016 80.2671ZM73.5006 81.7671L71.8326 80.0991C71.4246 80.2111 71.0086 80.2671 70.5846 80.2671C69.8086 80.2671 69.1006 80.0871 68.4606 79.7271C67.8206 79.3591 67.3126 78.8511 66.9366 78.2031C66.5686 77.5471 66.3846 76.8111 66.3846 75.9951C66.3846 75.1791 66.5686 74.4471 66.9366 73.7991C67.3126 73.1431 67.8206 72.6351 68.4606 72.2751C69.1006 71.9071 69.8086 71.7231 70.5846 71.7231C71.3686 71.7231 72.0806 71.9071 72.7206 72.2751C73.3606 72.6351 73.8646 73.1391 74.2326 73.7871C74.6006 74.4351 74.7846 75.1711 74.7846 75.9951C74.7846 76.7951 74.6086 77.5151 74.2566 78.1551C73.9046 78.7951 73.4206 79.2991 72.8046 79.6671L74.9166 81.7671H73.5006ZM67.5006 75.9951C67.5006 76.6591 67.6326 77.2431 67.8966 77.7471C68.1686 78.2511 68.5366 78.6391 69.0006 78.9111C69.4726 79.1831 70.0006 79.3191 70.5846 79.3191C71.1686 79.3191 71.6926 79.1831 72.1566 78.9111C72.6286 78.6391 72.9966 78.2511 73.2606 77.7471C73.5326 77.2431 73.6686 76.6591 73.6686 75.9951C73.6686 75.3231 73.5326 74.7391 73.2606 74.2431C72.9966 73.7391 72.6326 73.3511 72.1686 73.0791C71.7046 72.8071 71.1766 72.6711 70.5846 72.6711C69.9926 72.6711 69.4646 72.8071 69.0006 73.0791C68.5366 73.3511 68.1686 73.7391 67.8966 74.2431C67.6326 74.7391 67.5006 75.3231 67.5006 75.9951ZM77.3416 79.2951H80.2696V80.1831H76.2496V71.8191H77.3416V79.2951Z" fill="#4A476C"/>
</svg>
