<svg width="95" height="95" viewBox="0 0 95 95" fill="none" xmlns="http://www.w3.org/2000/svg">
<path d="M47.4999 24.5211C22.4585 24.5211 2.15674 34.8093 2.15674 47.5C2.15674 60.1906 22.4585 70.4789 47.4999 70.4789C72.5414 70.4789 92.8431 60.1906 92.8431 47.5C92.8431 34.8093 72.5414 24.5211 47.4999 24.5211ZM35.7014 51.9769C34.6193 52.9892 33.4177 53.4071 32.0944 53.8375C30.771 54.2687 29.087 54.1797 27.0393 54.1797H22.3984L21.1122 61.6015H15.6935L20.5288 36.3672H30.9492C34.0842 36.3672 36.3708 37.2689 37.8085 38.9144C39.2461 40.5598 39.678 42.8955 39.1051 45.8442C38.8683 47.0591 38.4697 48.1887 37.9072 49.1951C37.3242 50.2336 36.5796 51.1725 35.7014 51.9769V51.9769ZM51.5181 54.1797L53.6564 43.4773C53.8998 42.2245 53.8108 41.2938 53.3885 40.8389C52.9654 40.3831 52.0659 40.0781 50.6906 40.0781H46.3933L43.6242 54.1797H38.2478L43.0832 29.6875H48.4596L47.1741 36.3672H51.9635C54.9775 36.3672 57.0556 36.9721 58.1993 38.023C59.343 39.0739 59.6859 40.5138 59.2287 42.868L56.9792 54.1797H51.5181ZM81.3979 45.8835C81.1619 47.0985 80.7626 48.2088 80.2007 49.2144C79.6381 50.2216 78.9034 51.1426 77.9957 51.9769C76.9136 52.9892 75.7112 53.4071 74.3887 53.8375C73.0661 54.2687 71.3806 54.1797 69.3329 54.1797H64.692L63.4065 61.6015H57.9878L62.8224 36.3672H73.2435C76.3785 36.3672 78.6651 37.2689 80.102 38.9144C81.5381 40.5598 81.9708 42.9355 81.3979 45.8835V45.8835ZM71.1898 40.0781H67.4781L65.4542 50.4687H68.751C70.9345 50.4687 72.5629 50.2535 73.6316 49.4297C74.7019 48.6073 75.4225 47.3308 75.7973 45.4063C76.1565 43.5575 75.9933 42.1154 75.3075 41.3554C74.621 40.5954 73.2487 40.0781 71.1898 40.0781V40.0781ZM28.8963 40.0781H25.1838L23.1599 50.4687H26.456C28.6402 50.4687 30.2678 50.2535 31.3373 49.4297C32.4068 48.6073 33.1282 47.3308 33.5023 45.4063C33.8615 43.5575 33.6982 42.1154 33.0124 41.3554C32.3267 40.5954 30.9551 40.0781 28.8963 40.0781Z" fill="#6181B6"/>
</svg>
