<svg width="90" height="90" viewBox="0 0 91 91" fill="none" xmlns="http://www.w3.org/2000/svg">
<path d="M44.86 8.81965C41.8914 8.83371 39.0578 9.08614 36.5632 9.5277C29.2155 10.8257 27.8824 13.5425 27.8824 18.5537V25.1708H45.2446V27.3765H21.3658C16.3202 27.3765 11.9017 30.4091 10.5194 36.1804C8.92471 42.7932 8.8544 46.9206 10.5194 53.826C11.7534 58.9665 14.7009 62.6284 19.7472 62.6284H25.7174V54.6957C25.7174 48.9646 30.6752 43.9098 36.5639 43.9098H53.9064C58.7341 43.9098 62.5872 39.9343 62.5872 35.087V18.5544C62.5872 13.8484 58.6174 10.3138 53.9064 9.5284C50.9224 9.03199 47.8279 8.80629 44.86 8.81965ZM35.4705 14.1416C37.2635 14.1416 38.7288 15.6301 38.7288 17.4611C38.7288 19.2843 37.2642 20.7587 35.4705 20.7587C33.6705 20.7587 32.2129 19.2843 32.2129 17.4611C32.2122 15.6301 33.6705 14.1416 35.4705 14.1416Z" fill="url(#paint0_linear_12_488)"/>
<path d="M64.7523 27.3766V35.087C64.7523 41.0636 59.6842 46.0944 53.9059 46.0944H36.5633C31.813 46.0944 27.8826 50.1606 27.8826 54.918V71.452C27.8826 76.1566 31.9734 78.9248 36.5633 80.2741C42.059 81.8891 47.3296 82.1816 53.9059 80.2741C58.2765 79.0077 62.5867 76.461 62.5867 71.452V64.8341H45.2448V62.6277H71.2689C76.3145 62.6277 78.1961 59.1086 79.9511 53.8253C81.7637 48.3866 81.6857 43.1561 79.9511 36.1797C78.7037 31.1559 76.3223 27.3759 71.2689 27.3759H64.7523V27.3766ZM54.9979 69.2455C56.7986 69.2455 58.2562 70.72 58.2562 72.5446C58.2562 74.3741 56.7979 75.8627 54.9979 75.8627C53.2049 75.8627 51.7403 74.3741 51.7403 72.5446C51.7403 70.72 53.2049 69.2455 54.9979 69.2455Z" fill="url(#paint1_linear_12_488)"/>
<path opacity="0.444" d="M68.7087 84.2994C68.7087 86.7906 58.2913 88.8107 45.4416 88.8107C32.5913 88.8107 22.1738 86.7906 22.1738 84.2994C22.1738 81.8076 32.5906 79.7875 45.4416 79.7875C58.2913 79.7875 68.7087 81.8068 68.7087 84.2994Z" fill="url(#paint2_radial_12_488)"/>
<defs>
<linearGradient id="paint0_linear_12_488" x1="7.55634" y1="10.8887" x2="47.602" y2="45.0394" gradientUnits="userSpaceOnUse">
<stop stop-color="#5A9FD4"/>
<stop offset="1" stop-color="#306998"/>
</linearGradient>
<linearGradient id="paint1_linear_12_488" x1="62.6689" y1="66.2681" x2="48.3079" y2="46.1291" gradientUnits="userSpaceOnUse">
<stop stop-color="#FFD43B"/>
<stop offset="1" stop-color="#FFE873"/>
</linearGradient>
<radialGradient id="paint2_radial_12_488" cx="0" cy="0" r="1" gradientUnits="userSpaceOnUse" gradientTransform="translate(45.3476 84.1702) rotate(-90) scale(4.51288 19.8379)">
<stop stop-color="#B8B8B8" stop-opacity="0.498"/>
<stop offset="1" stop-color="#7F7F7F" stop-opacity="0"/>
</radialGradient>
</defs>
</svg>
