<svg width="95" height="95" viewBox="0 0 95 95" fill="none" xmlns="http://www.w3.org/2000/svg">
<path d="M47.503 19.0015C34.8361 19.0015 26.9221 25.3323 23.753 37.9992C28.5015 31.6676 34.0449 29.2934 40.3765 30.8765C43.9917 31.7775 46.5753 34.3989 49.4364 37.3038C54.0929 42.0293 59.4826 47.5 71.253 47.5C83.9192 47.5 91.8338 41.1684 95.003 28.4985C90.2537 34.8338 84.7111 37.2081 78.3787 35.625C74.7643 34.7232 72.1837 32.1026 69.3189 29.1976C64.6653 24.4721 59.2771 19.0015 47.503 19.0015ZM23.753 47.5C11.0868 47.5 3.17213 53.8316 0.00299072 66.5015C4.75151 60.1662 10.2942 57.7919 16.6265 59.375C20.2417 60.2767 22.8253 62.8974 25.6864 65.8023C30.3429 70.5278 35.7326 75.9985 47.503 75.9985C60.1692 75.9985 68.0838 69.6676 71.253 57.0007C66.5037 63.3323 60.9611 65.7066 54.6287 64.1235C51.0143 63.2225 48.4337 60.6011 45.5688 57.6962C40.9153 52.9706 35.5271 47.5 23.753 47.5Z" fill="#38B2AC"/>
</svg>
