<svg width="40" height="41" viewBox="0 0 40 41" fill="none" xmlns="http://www.w3.org/2000/svg">
<path d="M40 6.21429C40 3.0625 37.4375 0.5 34.2857 0.5H5.71429C2.5625 0.5 0 3.0625 0 6.21429V34.7857C0 37.9375 2.5625 40.5 5.71429 40.5H34.2857C37.4375 40.5 40 37.9375 40 34.7857V6.21429ZM23.7321 34.0446C23.7321 33.8839 23.7321 33.5089 23.7411 33.0089C23.75 31.9911 23.75 30.4375 23.75 29.1071C23.75 27.7143 23.2857 26.8304 22.7411 26.3661C26.0446 26 29.5268 25.5446 29.5268 19.8393C29.5268 18.2143 28.9464 17.4018 28 16.3571C28.1518 15.9732 28.6607 14.3929 27.8482 12.3393C26.6071 11.9554 23.7679 13.9375 23.7679 13.9375C22.5893 13.6071 21.3125 13.4375 20.0536 13.4375C18.7946 13.4375 17.5179 13.6071 16.3393 13.9375C16.3393 13.9375 13.5 11.9554 12.2589 12.3393C11.4464 14.3839 11.9464 15.9643 12.1071 16.3571C11.1607 17.4018 10.7143 18.2143 10.7143 19.8393C10.7143 25.5179 14.0446 26 17.3482 26.3661C16.9196 26.75 16.5357 27.4107 16.4018 28.3571C15.5536 28.7411 13.3839 29.4018 12.0893 27.1161C11.2768 25.7054 9.8125 25.5893 9.8125 25.5893C8.36607 25.5714 9.71429 26.5 9.71429 26.5C10.6786 26.9464 11.3571 28.6607 11.3571 28.6607C12.2232 31.3125 16.3661 30.4196 16.3661 30.4196C16.3661 31.2232 16.375 32.3571 16.375 33.1518C16.375 33.5804 16.3839 33.9196 16.3839 34.0446C16.3839 34.4286 16.1161 34.8929 15.3571 34.7589C9.46429 32.7857 5.33929 27.1786 5.33929 20.625C5.33929 12.4286 11.6071 6.20536 19.8036 6.20536C28 6.20536 34.6429 12.4286 34.6429 20.625C34.6518 27.1786 30.6518 32.7946 24.7589 34.7589C24.0089 34.8929 23.7321 34.4286 23.7321 34.0446ZM15.6518 29.1518C15.6339 29.0179 15.75 28.9018 15.9196 28.8661C16.0893 28.8482 16.25 28.9196 16.2679 29.0357C16.2946 29.1518 16.1786 29.2679 16 29.3036C15.8304 29.3393 15.6696 29.2679 15.6518 29.1518ZM14.8393 29.4375C14.6429 29.4554 14.5089 29.3571 14.5089 29.2232C14.5089 29.1071 14.6429 29.0089 14.8214 29.0089C14.9911 28.9911 15.1518 29.0893 15.1518 29.2232C15.1518 29.3393 15.0179 29.4375 14.8393 29.4375ZM13.5625 29.2411C13.3929 29.2054 13.2768 29.0714 13.3125 28.9554C13.3482 28.8393 13.5268 28.7857 13.6786 28.8214C13.8571 28.875 13.9732 29.0089 13.9286 29.125C13.8929 29.2411 13.7143 29.2946 13.5625 29.2411ZM12.4464 28.5893C12.3125 28.4732 12.2768 28.3036 12.3661 28.2232C12.4464 28.125 12.6161 28.1429 12.75 28.2768C12.8661 28.3929 12.9107 28.5714 12.8304 28.6429C12.75 28.7411 12.5804 28.7232 12.4464 28.5893ZM11.6875 27.6964C11.5893 27.5625 11.5893 27.4107 11.6875 27.3482C11.7857 27.2679 11.9375 27.3304 12.0179 27.4643C12.1161 27.5982 12.1161 27.7589 12.0179 27.8304C11.9375 27.8839 11.7857 27.8304 11.6875 27.6964ZM11.125 26.9107C11.0268 26.7946 11.0089 26.6607 11.0893 26.5982C11.1696 26.5179 11.3036 26.5625 11.4018 26.6518C11.5 26.7679 11.5179 26.9018 11.4375 26.9643C11.3571 27.0446 11.2232 27 11.125 26.9107ZM10.5893 26.3393C10.4732 26.2857 10.4196 26.1875 10.4554 26.1071C10.4911 26.0536 10.5893 26.0268 10.7054 26.0714C10.8214 26.1339 10.875 26.2321 10.8393 26.3036C10.8036 26.3839 10.6875 26.4018 10.5893 26.3393Z" fill="#03045E"/>
</svg>
