<svg width="40" height="40" viewBox="0 0 40 40" fill="none" xmlns="http://www.w3.org/2000/svg">
<path d="M17.3571 16.5391C16.8371 16.8433 16.3907 17.2341 16.0433 17.6893C15.6959 18.1444 15.4544 18.655 15.3325 19.1918C15.0864 20.276 15.3425 21.4014 16.0446 22.3203C16.7468 23.2392 17.8373 23.8765 19.0764 24.0919C20.3155 24.3072 21.6016 24.0831 22.6518 23.4688C23.702 22.8544 24.4303 21.9002 24.6764 20.816C24.9226 19.7318 24.6664 18.6064 23.9643 17.6875C23.2622 16.7686 22.1716 16.1313 20.9325 15.9159C19.6935 15.7006 18.4074 15.9247 17.3571 16.5391ZM30.0625 11.1953C29.5982 10.7891 29.0357 10.4688 28.4196 10.2578C26.8036 9.70313 23.2768 9.72656 21 9.75C20.6339 9.75 20.2946 9.75781 20 9.75781C19.7054 9.75781 19.3571 9.75781 18.9821 9.75C16.7054 9.72656 13.1964 9.69531 11.5804 10.2578C10.9643 10.4688 10.4107 10.7891 9.9375 11.1953C9.46429 11.6016 9.10714 12.0938 8.86607 12.6328C8.23214 14.0469 8.26786 17.1406 8.28572 19.1328C8.28572 19.4531 8.29464 19.75 8.29464 20C8.29464 20.25 8.29464 20.5469 8.28572 20.8672C8.26786 22.8594 8.23214 25.9531 8.86607 27.3672C9.10714 27.9062 9.47322 28.3906 9.9375 28.8047C10.4018 29.2188 10.9643 29.5312 11.5804 29.7422C13.1964 30.2969 16.7232 30.2734 19 30.25C19.3661 30.25 19.7054 30.2422 20 30.2422C20.2946 30.2422 20.6429 30.2422 21.0179 30.25C23.2946 30.2734 26.8036 30.3047 28.4196 29.7422C29.0357 29.5312 29.5893 29.2109 30.0625 28.8047C30.5357 28.3984 30.8929 27.9062 31.1339 27.3672C31.7768 25.9609 31.7411 22.8828 31.7143 20.8828C31.7143 20.5547 31.7054 20.25 31.7054 19.9922C31.7054 19.7344 31.7054 19.4375 31.7143 19.1016C31.7411 17.1094 31.7768 14.0312 31.1339 12.6172C30.8929 12.0781 30.5268 11.5938 30.0625 11.1797V11.1953ZM24.0714 14.6719C25.6864 15.6167 26.8063 17.0842 27.1847 18.7515C27.5631 20.4188 27.1691 22.1494 26.0893 23.5625C25.5546 24.2622 24.8677 24.8629 24.0677 25.3303C23.2677 25.7977 22.3703 26.1227 21.4268 26.2866C19.5213 26.6177 17.5436 26.273 15.9286 25.3281C14.3136 24.3843 13.1932 22.9178 12.814 21.2512C12.4347 19.5847 12.8276 17.8545 13.9062 16.4414C14.9849 15.0283 16.6609 14.048 18.5655 13.7161C20.4702 13.3843 22.4475 13.7281 24.0625 14.6719H24.0714ZM26.6786 14.5703C26.4018 14.4062 26.1786 14.1719 26.0446 13.8984C25.9107 13.625 25.8839 13.3281 25.9464 13.0312C26.0089 12.7344 26.1786 12.4766 26.4107 12.2656C26.6429 12.0547 26.9554 11.9141 27.2857 11.8594C27.6161 11.8047 27.9643 11.8281 28.2768 11.9453C28.5893 12.0625 28.8571 12.25 29.0446 12.4922C29.2321 12.7344 29.3304 13.0234 29.3304 13.3203C29.3304 13.5156 29.2857 13.7109 29.2054 13.8906C29.125 14.0703 28.9911 14.2344 28.8393 14.375C28.6875 14.5156 28.4911 14.625 28.2857 14.7031C28.0804 14.7812 27.8571 14.8203 27.6339 14.8203C27.2946 14.8203 26.9643 14.7344 26.6875 14.5703H26.6786ZM40 7.5C40 4.74219 37.4375 2.5 34.2857 2.5H5.71429C2.5625 2.5 0 4.74219 0 7.5V32.5C0 35.2578 2.5625 37.5 5.71429 37.5H34.2857C37.4375 37.5 40 35.2578 40 32.5V7.5ZM31.875 30.3906C30.2054 31.8516 28.1786 32.3125 25.8929 32.4141C23.5357 32.5312 16.4643 32.5312 14.1071 32.4141C11.8214 32.3125 9.79464 31.8516 8.125 30.3906C6.45536 28.9297 5.92857 27.1562 5.82143 25.1562C5.6875 23.0938 5.6875 16.9062 5.82143 14.8438C5.9375 12.8438 6.45536 11.0703 8.125 9.60938C9.79464 8.14844 11.8304 7.6875 14.1071 7.59375C16.4643 7.47656 23.5357 7.47656 25.8929 7.59375C28.1786 7.69531 30.2054 8.14844 31.875 9.60938C33.5446 11.0703 34.0714 12.8438 34.1786 14.8438C34.3125 16.8984 34.3125 23.0781 34.1786 25.1484C34.0625 27.1484 33.5446 28.9219 31.875 30.3828V30.3906Z" fill="#03045E"/>
</svg>
