<svg width="90" height="90" viewBox="0 0 90 90" fill="none" xmlns="http://www.w3.org/2000/svg">
<path d="M0.98999 1.19775H89.01V89.2185H0.98999V1.19775Z" fill="#F0DB4F"/>
<path d="M81.8065 68.2253C81.1618 64.2098 78.5433 60.8369 70.7872 57.6918C68.0928 56.4536 65.089 55.567 64.194 53.5251C63.8761 52.3368 63.834 51.6674 64.035 50.9481C64.6123 48.6138 67.3988 47.886 69.6073 48.5554C71.0297 49.0321 72.3762 50.1283 73.1883 51.877C76.9866 49.4174 76.9789 49.4336 79.6311 47.7433C78.66 46.2379 78.1418 45.5432 77.5062 44.8991C75.2218 42.3475 72.109 41.0334 67.1309 41.1339L64.5378 41.4693C62.0529 42.0972 59.6848 43.4015 58.2961 45.1502C54.1294 49.878 55.3177 58.1523 60.3879 61.5576C65.3829 65.3066 72.7207 66.1595 73.658 69.6653C74.57 73.9572 70.5038 75.3466 66.4622 74.853C63.4838 74.2335 61.8272 72.7197 60.0364 69.967C56.7401 71.8745 56.7401 71.8745 53.3511 73.8236C54.1547 75.5807 54.9992 76.3759 56.3464 77.8982C62.7223 84.3655 78.6776 84.0477 81.5393 74.2588C81.6554 73.9227 82.426 71.6812 81.8065 68.2253ZM48.8405 41.6521H40.6076L40.5739 62.9371C40.5739 67.4638 40.808 71.6137 40.0718 72.8856C38.8674 75.3873 35.7462 75.0773 34.3238 74.5921C32.8761 73.8805 32.1399 72.8687 31.287 71.4386C31.0529 71.028 30.8771 70.7102 30.818 70.6855L24.1243 74.7848C25.2373 77.0692 26.877 79.052 28.9772 80.3402C32.1146 82.2231 36.3312 82.8004 40.7412 81.7879C43.6114 80.9519 46.0878 79.2201 47.3843 76.5841C49.2589 73.1282 48.8567 68.9453 48.8398 64.3188C48.882 56.7707 48.8405 49.2241 48.8405 41.6521Z" fill="#323330"/>
</svg>
