<svg width="90" height="90" viewBox="0 0 91 91" fill="none" xmlns="http://www.w3.org/2000/svg">
<path d="M33.7691 69.1984C33.7691 69.1984 30.4173 71.1489 36.1576 71.807C43.1129 72.6015 46.6672 72.4876 54.3299 71.0392C54.3299 71.0392 56.3486 72.3013 59.1625 73.3954C41.9788 80.7571 20.274 72.9686 33.7691 69.1984ZM31.6682 59.5902C31.6682 59.5902 27.9079 62.3739 33.6531 62.9687C41.083 63.7358 46.9492 63.7984 57.1051 61.8437C57.1051 61.8437 58.5065 63.2676 60.7136 64.0452C39.9419 70.1202 16.8062 64.5233 31.6682 59.5902Z" fill="#0074BD"/>
<path d="M49.368 43.289C53.6043 48.1651 48.257 52.5491 48.257 52.5491C48.257 52.5491 59.0071 47.0008 54.0712 40.0497C49.4594 33.5704 45.9241 30.3522 65.0645 19.2512C65.0645 19.2519 35.0193 26.7536 49.368 43.289Z" fill="#EA2D2E"/>
<path d="M72.0937 76.3063C72.0937 76.3063 74.575 78.3524 69.3599 79.9337C59.4444 82.9375 28.0822 83.8431 19.3719 80.054C16.2423 78.6913 22.1134 76.802 23.9605 76.4033C25.8864 75.9864 26.9861 76.0623 26.9861 76.0623C23.5035 73.6105 4.47693 80.8787 17.323 82.9635C52.3534 88.6419 81.1787 80.4062 72.0937 76.3063ZM35.3828 49.6333C35.3828 49.6333 19.4317 53.4224 29.7346 54.7998C34.0855 55.382 42.7551 55.2484 50.8361 54.5706C57.4384 54.0158 64.064 52.8311 64.064 52.8311C64.064 52.8311 61.738 53.8288 60.0533 54.9777C43.8519 59.2393 12.5615 57.2544 21.5706 52.8979C29.1869 49.2142 35.3828 49.6333 35.3828 49.6333ZM63.9979 65.6272C80.4658 57.0723 72.8509 48.8507 67.536 49.9581C66.2366 50.2288 65.6537 50.4643 65.6537 50.4643C65.6537 50.4643 66.1375 49.7057 67.06 49.3794C77.5738 45.6845 85.6583 60.28 63.6688 66.0611C63.6688 66.0597 63.9212 65.8311 63.9979 65.6272Z" fill="#0074BD"/>
<path d="M54.071 1.32361C54.071 1.32361 63.1891 10.4474 45.4204 24.4726C31.1709 35.7268 42.1713 42.1421 45.4155 49.475C37.0968 41.9706 30.9951 35.3633 35.088 29.2145C41.0983 20.1906 57.749 15.8136 54.071 1.32361Z" fill="#EA2D2E"/>
<path d="M37.0013 88.8163C52.8047 89.8267 77.0794 88.2538 77.6539 80.7754C77.6539 80.7754 76.5493 83.6104 64.5919 85.8597C51.1018 88.3994 34.4602 88.1034 24.5933 86.4742C24.5933 86.4749 26.6147 88.1484 37.0013 88.8163Z" fill="#0074BD"/>
</svg>
