<svg width="40" height="41" viewBox="0 0 40 41" fill="none" xmlns="http://www.w3.org/2000/svg">
<path d="M37.1429 0.5H2.84821C1.27679 0.5 0 1.79464 0 3.38393V37.6161C0 39.2054 1.27679 40.5 2.84821 40.5H37.1429C38.7143 40.5 40 39.2054 40 37.6161V3.38393C40 1.79464 38.7143 0.5 37.1429 0.5ZM6.16071 34.7857V15.6964H12.0982V34.7857H6.16071ZM9.125 13.0893C7.22321 13.0893 5.6875 11.5446 5.6875 9.65179C5.6875 7.75893 7.22321 6.21429 9.125 6.21429C11.0179 6.21429 12.5625 7.75893 12.5625 9.65179C12.5625 11.5536 11.0268 13.0893 9.125 13.0893ZM34.3125 34.7857H28.3839V25.5C28.3839 23.2857 28.3393 20.4375 25.3036 20.4375C22.2143 20.4375 21.7411 22.8482 21.7411 25.3393V34.7857H15.8125V15.6964H21.5V18.3036H21.5804C22.375 16.8036 24.3125 15.2232 27.1964 15.2232C33.1964 15.2232 34.3125 19.1786 34.3125 24.3214V34.7857Z" fill="#03045E"/>
</svg>
