<svg width="24" height="25" viewBox="0 0 24 25" fill="none" xmlns="http://www.w3.org/2000/svg">
<g clip-path="url(#clip0_60_240)">
<path d="M16.6667 12.8684V12.1512V10.6609C16.6667 10.2511 16.3667 9.9158 16 9.9158H14.6667H14H12.0625C9.94167 9.9158 8.15 11.4759 7.55 13.6228C7.4125 13.1851 7.33333 12.7007 7.33333 12.1512C7.33333 9.26847 9.42083 6.93528 12 6.93528H14H14.6667H16C16.3667 6.93528 16.6667 6.59997 16.6667 6.19015V4.69989V3.9827L21.0833 8.42554L16.6667 12.8684ZM14 12.1512H14.6667V14.3866C14.6667 15.2109 15.2625 15.8768 16 15.8768H16.1542C16.4833 15.8768 16.8 15.7418 17.0458 15.495L22.8375 9.66898C23.1542 9.3523 23.3333 8.90056 23.3333 8.42554C23.3333 7.95052 23.1542 7.49879 22.8375 7.18211L17.0792 1.38872C16.8125 1.12327 16.4708 0.974243 16.1125 0.974243C15.3125 0.974243 14.6667 1.69609 14.6667 2.59024V4.69989H14H12.6667H12C8.31667 4.69989 5.33333 8.03435 5.33333 12.1512C5.33333 14.9641 6.775 16.7663 7.99583 17.7816C8.24167 17.9865 8.475 18.1588 8.69167 18.3032C8.875 18.4289 9.04583 18.5314 9.1875 18.6105C9.32917 18.6897 9.44583 18.7502 9.52917 18.7922C9.62083 18.8387 9.72083 18.8574 9.825 18.8574H9.92917C10.3375 18.8574 10.6708 18.4848 10.6708 18.0284C10.6708 17.6652 10.45 17.3438 10.1875 17.1203C10.1708 17.1063 10.1583 17.097 10.1417 17.083C10.0708 17.0318 10 16.9666 9.93333 16.8921C9.9 16.8548 9.8625 16.8176 9.82917 16.771C9.79583 16.7244 9.7625 16.6825 9.72917 16.6359C9.65417 16.5195 9.58333 16.3891 9.52083 16.2401C9.4125 15.9607 9.34167 15.6207 9.34167 15.1969C9.34167 13.5157 10.5625 12.1465 12.0708 12.1465H12.675H14.0083L14 12.1512ZM3 2.4645C1.34167 2.4645 0 3.96408 0 5.81759V21.4653C0 23.3188 1.34167 24.8184 3 24.8184H17C18.6583 24.8184 20 23.3188 20 21.4653V18.4848C20 17.8654 19.5542 17.3671 19 17.3671C18.4458 17.3671 18 17.8654 18 18.4848V21.4653C18 22.0847 17.5542 22.583 17 22.583H3C2.44583 22.583 2 22.0847 2 21.4653V5.81759C2 5.1982 2.44583 4.69989 3 4.69989H5.66667C6.22083 4.69989 6.66667 4.20159 6.66667 3.5822C6.66667 2.96281 6.22083 2.4645 5.66667 2.4645H3Z" fill="#03045E"/>
</g>
<defs>
<clipPath id="clip0_60_240">
<rect width="24" height="23.8442" fill="white" transform="translate(0 0.974243)"/>
</clipPath>
</defs>
</svg>
