<svg width="90" height="90" viewBox="0 0 91 91" fill="none" xmlns="http://www.w3.org/2000/svg">
<path d="M79.5151 21.5363L48.477 3.53282C46.5216 2.41907 43.9601 2.41907 41.9893 3.53282L10.7086 21.5363C8.69138 22.6972 7.31958 24.879 7.31958 27.2127V63.1719C7.31958 65.5056 8.72021 67.6881 10.7382 68.8552L18.9851 73.5577C22.9416 75.5068 24.0378 75.5068 25.8378 75.5068C31.6976 75.5068 34.7408 71.9638 34.7408 65.784V30.2832C34.7415 29.7819 35.0543 29.0359 34.5615 29.0359H30.6085C30.1079 29.0359 29.1165 29.7819 29.1165 30.2825V65.7833C29.1165 68.5227 26.574 71.2487 21.9432 68.9333L13.4199 64.0023C13.1232 63.8406 12.9446 63.515 12.9446 63.1719V27.2127C12.9446 26.8738 13.2701 26.5334 13.5711 26.3598L44.7743 8.3872C44.9275 8.30582 45.0983 8.26326 45.2718 8.26326C45.4453 8.26326 45.6161 8.30582 45.7693 8.3872L76.6808 26.3556C76.9768 26.5334 76.9297 26.8632 76.9297 27.2127V63.1719C76.9297 63.515 76.9943 63.849 76.7026 64.0142L45.6715 81.9974C45.4058 82.157 45.0598 82.157 44.768 81.9974L36.8108 77.252C36.571 77.1127 36.282 77.0628 36.0514 77.1915C33.84 78.4452 33.4294 78.6118 31.3552 79.3311C30.844 79.509 30.0903 79.8177 31.6421 80.6874L42.0469 86.8426C43.0402 87.4165 44.1672 87.7186 45.3143 87.7187C46.466 87.7206 47.5977 87.4183 48.5951 86.8426L79.5158 68.8552C81.5344 67.6796 82.5547 65.5056 82.5547 63.1719V27.2127C82.554 24.879 81.5337 22.7028 79.5151 21.5363ZM54.9401 57.4738C46.6946 57.4738 44.8791 55.1992 44.2737 51.0992C44.202 50.6577 43.8279 50.1296 43.3779 50.1296H39.349C38.8505 50.1296 38.449 50.7343 38.449 51.2307C38.449 56.4802 41.3037 62.8407 54.9401 62.8407C64.8106 62.8407 70.4708 59.0052 70.4708 52.2172C70.4708 45.4869 65.9236 43.7206 56.3506 42.4536C46.6742 41.1746 45.6912 40.5284 45.6912 38.2616C45.6912 36.3927 46.5237 33.9001 53.6886 33.9001C60.0898 33.9001 62.4495 35.274 63.4205 39.5891C63.5042 39.9948 63.8747 40.2859 64.2931 40.2859H68.3389C68.5878 40.2859 68.8247 40.1853 68.9991 40.0074C69.1686 39.8162 69.2572 39.5764 69.2354 39.3191C68.6075 31.8877 63.6715 28.4249 53.6879 28.4249C44.806 28.4249 39.5086 32.1753 39.5086 38.462C39.5086 45.2809 44.78 47.1652 53.3054 48.0083C63.5042 49.0081 64.2973 50.4988 64.2973 52.5048C64.2973 55.9895 61.5003 57.4738 54.9401 57.4738Z" fill="#83CD29"/>
</svg>
