<svg width="90" height="90" viewBox="0 0 91 91" fill="none" xmlns="http://www.w3.org/2000/svg">
<path d="M45.2883 53.2234C49.7152 53.2234 53.304 49.6347 53.304 45.2078C53.304 40.7809 49.7152 37.1921 45.2883 37.1921C40.8614 37.1921 37.2727 40.7809 37.2727 45.2078C37.2727 49.6347 40.8614 53.2234 45.2883 53.2234Z" fill="#61DAFB"/>
<path d="M75.7336 31.989C74.1868 31.4265 72.5696 30.864 70.8821 30.3718C71.304 28.6843 71.6555 26.9968 71.9368 25.3796C73.4133 16.0984 71.7961 9.55933 67.2961 7.02808C65.9602 6.25464 64.4836 5.90308 62.7961 5.90308C57.8743 5.90308 51.6165 9.55933 45.2883 15.6765C38.9602 9.55933 32.7024 5.90308 27.7805 5.90308C26.093 5.90308 24.6165 6.25464 23.2805 7.02808C18.7805 9.62964 17.1633 16.1687 18.6399 25.3796C18.9211 26.9968 19.2727 28.6843 19.6946 30.3718C18.0071 30.864 16.3899 31.3562 14.843 31.989C6.05396 35.364 1.27271 40.0046 1.27271 45.2078C1.27271 50.4109 6.12427 55.0515 14.843 58.4265C16.3899 58.989 18.0071 59.5515 19.6946 60.0437C19.2727 61.7312 18.9211 63.4187 18.6399 65.0359C17.1633 74.3171 18.7805 80.8562 23.2805 83.3875C24.6165 84.1609 26.093 84.5125 27.7805 84.5125C32.7727 84.5125 39.0305 80.8562 45.2883 74.739C51.6165 80.8562 57.8743 84.5125 62.7961 84.5125C64.4836 84.5125 65.9602 84.1609 67.2961 83.3875C71.7961 80.7859 73.4133 74.2468 71.9368 65.0359C71.6555 63.4187 71.304 61.7312 70.8821 60.0437C72.5696 59.5515 74.1868 59.0593 75.7336 58.4265C84.5227 55.0515 89.304 50.4109 89.304 45.2078C89.304 40.0046 84.5227 35.364 75.7336 31.989ZM65.3274 10.5437C68.2102 12.2312 69.1946 17.4343 67.9993 24.8171C67.7883 26.2937 67.4368 27.8406 67.0149 29.4578C63.3586 28.614 59.4915 28.0515 55.4133 27.6999C53.0227 24.3249 50.5618 21.3015 48.1008 18.5593C53.304 13.4265 58.5774 9.91089 62.8665 9.91089C63.7805 9.91089 64.6243 10.1218 65.3274 10.5437ZM57.4524 52.239C56.1868 54.489 54.7102 56.739 53.1633 58.989C50.5618 59.2 47.9602 59.2703 45.2883 59.2703C42.5461 59.2703 39.9446 59.2 37.4133 58.989C35.8665 56.739 34.4602 54.489 33.1946 52.239C31.8586 49.9187 30.593 47.5281 29.468 45.2078C30.593 42.8875 31.8586 40.4968 33.1946 38.1765C34.4602 35.9265 35.9368 33.6765 37.4836 31.4265C40.0852 31.2156 42.6868 31.1453 45.3586 31.1453C48.1008 31.1453 50.7024 31.2156 53.2336 31.4265C54.7805 33.6765 56.1868 35.9265 57.4524 38.1765C58.7883 40.4968 60.054 42.8875 61.179 45.2078C59.9836 47.5281 58.7883 49.8484 57.4524 52.239ZM63.2883 49.9187C64.343 52.3796 65.1868 54.7703 65.9602 57.1609C63.5696 57.7234 61.0383 58.1453 58.3665 58.4968C59.2102 57.1609 60.1243 55.7546 60.8977 54.2781C61.7415 52.8015 62.5149 51.325 63.2883 49.9187ZM45.2883 68.9734C43.6008 67.1453 41.9836 65.1765 40.4368 63.1375C42.054 63.2078 43.6711 63.2781 45.2883 63.2781C46.9055 63.2781 48.5227 63.2078 50.1399 63.1375C48.593 65.1765 46.9758 67.1453 45.2883 68.9734ZM32.2102 58.4265C29.5383 58.075 27.0071 57.6531 24.6165 57.0906C25.3899 54.7703 26.2336 52.3093 27.2883 49.8484C28.0618 51.2546 28.8352 52.7312 29.679 54.1375C30.5227 55.6843 31.3665 57.0203 32.2102 58.4265ZM27.2883 40.4968C26.2336 38.0359 25.3899 35.6453 24.6165 33.2546C27.0071 32.6921 29.5383 32.2703 32.2102 31.9187C31.3665 33.2546 30.4524 34.6609 29.679 36.1375C28.8352 37.614 28.0618 39.0906 27.2883 40.4968ZM45.2883 21.4421C46.9758 23.2703 48.593 25.239 50.1399 27.2781C48.5227 27.2078 46.9055 27.1375 45.2883 27.1375C43.6711 27.1375 42.054 27.2078 40.4368 27.2781C41.9836 25.239 43.6008 23.2703 45.2883 21.4421ZM60.8977 36.2078L58.3665 31.989C61.0383 32.3406 63.5696 32.7625 65.9602 33.325C65.1868 35.6453 64.343 38.1062 63.2883 40.5671C62.5149 39.0906 61.7415 37.614 60.8977 36.2078ZM22.5774 24.8171C21.3821 17.4343 22.3665 12.2312 25.2493 10.5437C25.9524 10.1218 26.7961 9.91089 27.7102 9.91089C31.929 9.91089 37.2024 13.3562 42.4758 18.5593C40.0149 21.2312 37.554 24.3249 35.1633 27.6999C31.0852 28.0515 27.218 28.6843 23.5618 29.4578C23.1399 27.8406 22.8586 26.2937 22.5774 24.8171ZM5.21021 45.2078C5.21021 41.9031 9.21802 38.3875 16.2493 35.7859C17.6555 35.2234 19.2024 34.7312 20.7493 34.3093C21.8743 37.825 23.2805 41.5515 24.968 45.2781C23.2805 49.0046 21.804 52.6609 20.7493 56.1765C11.0461 53.364 5.21021 49.1453 5.21021 45.2078ZM25.2493 79.8718C22.3665 78.1843 21.3821 72.9812 22.5774 65.5984C22.7883 64.1218 23.1399 62.575 23.5618 60.9578C27.218 61.8015 31.0852 62.364 35.1633 62.7156C37.554 66.0906 40.0149 69.114 42.4758 71.8562C37.2727 76.989 31.9993 80.5046 27.7102 80.5046C26.7961 80.5046 25.9524 80.2937 25.2493 79.8718ZM67.9993 65.5984C69.1946 72.9812 68.2102 78.1843 65.3274 79.8718C64.6243 80.2937 63.7805 80.5046 62.8665 80.5046C58.6477 80.5046 53.3743 77.0593 48.1008 71.8562C50.5618 69.1843 53.0227 66.0906 55.4133 62.7156C59.4915 62.364 63.3586 61.7312 67.0149 60.9578C67.4368 62.575 67.718 64.1218 67.9993 65.5984ZM74.3274 54.6296C72.9211 55.1921 71.3743 55.6843 69.8274 56.1062C68.7024 52.5906 67.2961 48.864 65.6086 45.1375C67.2961 41.4109 68.7727 37.7546 69.8274 34.239C79.5305 37.0515 85.3665 41.2703 85.3665 45.2078C85.3665 48.5125 81.2883 52.0281 74.3274 54.6296Z" fill="#61DAFB"/>
</svg>
