<svg width="40" height="40" viewBox="0 0 40 40" fill="none" xmlns="http://www.w3.org/2000/svg">
<path d="M5.71429 2.5C2.5625 2.5 0 4.74219 0 7.5V32.5C0 35.2578 2.5625 37.5 5.71429 37.5H34.2857C37.4375 37.5 40 35.2578 40 32.5V7.5C40 4.74219 37.4375 2.5 34.2857 2.5H5.71429ZM32.2411 9.0625L22.9732 18.3281L33.875 30.9375H25.3393L18.6607 23.2891L11.0089 30.9375H6.76786L16.6786 21.0234L6.22321 9.0625H14.9732L21.0179 16.0547L28 9.0625H32.2411ZM28.8661 28.7188L13.6964 11.1641H11.1696L26.5089 28.7188H28.8571H28.8661Z" fill="#03045E"/>
</svg>
