<svg width="90" height="90" viewBox="0 0 90 90" fill="none" xmlns="http://www.w3.org/2000/svg">
<path d="M17.585 33.2546H94.898V85.0539H17.585V33.2546Z" fill="white"/>
<path d="M1.16357 45.1445V89.0898H98.1249V1.19922H1.16357V45.1445ZM79.2989 41.6289C81.6212 42.1174 83.7319 43.2184 85.3648 44.793C86.2637 45.6413 87.0451 46.5857 87.6918 47.6055C87.6918 47.718 83.5031 50.2844 80.9511 51.7188C80.858 51.775 80.4857 51.4094 80.0746 50.8539C79.6087 50.1252 78.9467 49.5154 78.1505 49.0814C77.3543 48.6474 76.4497 48.4033 75.5213 48.3719C72.5814 48.1891 70.6887 49.5883 70.7042 51.8875C70.6799 52.4599 70.8245 53.0279 71.1231 53.5328C71.7669 54.7492 72.9692 55.4734 76.7391 56.95C83.6815 59.657 86.6524 61.443 88.4986 63.9812C90.5619 66.7937 91.0195 71.3359 89.6233 74.6969C88.0719 78.3531 84.271 80.8352 78.8955 81.6578C76.4403 81.9127 73.9597 81.8891 71.5109 81.5875C67.7579 81.0267 64.3008 79.3934 61.6442 76.9258C60.7521 76.0328 59.0146 73.7055 59.1232 73.5367C59.4063 73.3462 59.7045 73.1746 60.0152 73.0234L63.6067 71.2234L66.3914 69.7609L66.9731 70.5414C67.955 71.8145 69.2045 72.8993 70.6499 73.7336C73.7527 75.2102 77.9879 75.0062 80.0823 73.2977C80.7855 72.6716 81.2242 71.8418 81.322 70.9527C81.4198 70.0636 81.1705 69.1717 80.6175 68.432C79.8419 67.4547 78.2905 66.632 73.9544 64.9164C68.9512 62.9617 66.7947 61.7523 64.8245 59.8258C63.5945 58.5545 62.6864 57.0545 62.1639 55.4312C61.7741 53.5767 61.7165 51.6774 61.9932 49.8062C63.0249 45.4258 66.6474 42.3672 71.9376 41.4602C74.3875 41.1854 76.8692 41.247 79.2989 41.643V41.6289ZM56.5401 45.3133V48.9133H43.9507V81.4187H35.0225V48.9062H22.402V45.3906C22.3627 44.1783 22.3937 42.9649 22.4951 41.7555C22.5571 41.6922 30.252 41.6922 39.5602 41.6922H56.4936L56.5401 45.3133Z" fill="#007ACC"/>
</svg>
